<svg width="36" height="33" viewBox="0 0 36 33" fill="none" xmlns="http://www.w3.org/2000/svg">
<path d="M35.9664 12.1001C35.4138 6.26001 28.3306 2.99598 24.1576 1.5702L24.1565 1.56968C21.5416 0.675719 14.5974 -1.69642 8.32669 2.03093C1.62326 6.01615 -2.6686 16.1455 1.89046 24.3105C4.62475 29.2063 10.0804 32.3697 15.5401 32.3697C16.0434 32.3697 16.5472 32.3427 17.0484 32.2877C22.2872 31.7139 25.3094 28.234 30.3178 22.4691C34.1728 18.032 36.2969 15.5877 35.9664 12.1001ZM28.3534 20.7627C23.4509 26.4061 20.9911 29.239 16.7651 29.7018C11.9186 30.2393 6.61295 27.4329 4.16143 23.0425C0.43978 16.3785 3.99281 7.6339 9.65596 4.26818C11.7661 3.01362 13.9841 2.59232 16.0455 2.59232C19.0999 2.59232 21.8109 3.51845 23.3155 4.03262L23.7373 2.80193L23.3165 4.03262C26.1982 5.01686 32.9462 7.79786 33.3769 12.346C33.5937 14.632 32.087 16.4667 28.3534 20.7627Z" fill="#34B680"/>
<path d="M16.0144 6.43433C12.3867 6.43433 9.43445 9.39016 9.43445 13.0231C9.43445 16.6565 12.3867 19.6124 16.0144 19.6124C19.6421 19.6124 22.5943 16.6565 22.5943 13.0231C22.5943 9.39016 19.6421 6.43433 16.0144 6.43433ZM16.1955 10.9099C15.0514 11.0266 14.0786 12.0108 14.1528 12.9748C14.2088 13.6908 13.6734 14.3166 12.9569 14.3726C12.9231 14.3752 12.8884 14.3762 12.8546 14.3762C12.1822 14.3762 11.6125 13.8584 11.5596 13.1762C11.3749 10.805 13.3771 8.58181 15.9309 8.32187C16.6479 8.24612 17.284 8.76963 17.3572 9.48356C17.4303 10.1985 16.9099 10.8367 16.1955 10.9099Z" fill="#34B680"/>
</svg>
