<svg width="33" height="29" viewBox="0 0 33 29" fill="none" xmlns="http://www.w3.org/2000/svg">
<path d="M9.37562 22.8608C7.68097 22.8608 6.30725 24.2346 6.30725 25.9292C6.30725 27.6239 7.68103 28.9976 9.37562 28.9976C11.0703 28.9976 12.444 27.6238 12.444 25.9292C12.444 24.2346 11.0703 22.8608 9.37562 22.8608ZM9.37562 27.6339C8.43416 27.6339 7.67098 26.8707 7.67098 25.9293C7.67098 24.9878 8.43416 24.2246 9.37562 24.2246C10.3171 24.2246 11.0803 24.9878 11.0803 25.9293C11.0803 26.8707 10.3171 27.6339 9.37562 27.6339Z" fill="black"/>
<path d="M22.3311 22.8608C20.6364 22.8608 19.2627 24.2346 19.2627 25.9292C19.2627 27.6239 20.6365 28.9976 22.3311 28.9976C24.0256 28.9976 25.3994 27.6238 25.3994 25.9292C25.3994 24.2346 24.0257 22.8608 22.3311 22.8608ZM22.3311 27.6339C21.3896 27.6339 20.6264 26.8707 20.6264 25.9293C20.6264 24.9878 21.3896 24.2246 22.3311 24.2246C23.2725 24.2246 24.0357 24.9878 24.0357 25.9293C24.0358 26.8707 23.2725 27.6339 22.3311 27.6339Z" fill="black"/>
<path d="M29.252 4.96198C29.11 4.80687 28.9157 4.70977 28.7065 4.68921L6.51183 4.38237L5.89815 2.50722C5.46583 1.25371 4.29199 0.407463 2.96611 0.393433H0.681866C0.30527 0.393433 0 0.698703 0 1.0753C0 1.45189 0.30527 1.75717 0.681866 1.75717H2.96611C3.70749 1.77354 4.36032 2.24959 4.60261 2.95045L8.93246 16.0082L8.59156 16.7923C8.2113 17.7728 8.3255 18.8765 8.89839 19.7584C9.4658 20.6246 10.4204 21.1592 11.4554 21.1903H24.7177C25.0943 21.1903 25.3996 20.8851 25.3996 20.5085C25.3996 20.1319 25.0943 19.8266 24.7177 19.8266H11.4553C10.8708 19.812 10.3328 19.5045 10.0234 19.0083C9.71749 18.5183 9.65465 17.9145 9.85297 17.3718L10.1257 16.7582L24.479 15.258C26.0556 15.0844 27.3525 13.9377 27.7179 12.3942L29.3544 5.54146C29.4281 5.34413 29.389 5.12219 29.252 4.96198ZM26.3882 12.0874C26.1669 13.081 25.3233 13.8139 24.3085 13.8944L10.1257 15.3604L6.95505 5.74611L27.8542 6.05294L26.3882 12.0874Z" fill="black"/>
<circle cx="29" cy="4" r="4" fill="#58C755"/>
</svg>
