<svg width="30" height="29" viewBox="0 0 30 29" fill="none" xmlns="http://www.w3.org/2000/svg">
<path d="M9.37561 22.4674C7.68096 22.4674 6.30725 23.8412 6.30725 25.5358C6.30725 27.2304 7.68103 28.6041 9.37561 28.6041C11.0703 28.6041 12.444 27.2303 12.444 25.5358C12.444 23.8412 11.0703 22.4674 9.37561 22.4674ZM9.37561 27.2405C8.43416 27.2405 7.67098 26.4773 7.67098 25.5358C7.67098 24.5944 8.43416 23.8312 9.37561 23.8312C10.3171 23.8312 11.0802 24.5944 11.0802 25.5358C11.0803 26.4773 10.3171 27.2405 9.37561 27.2405Z" fill="black"/>
<path d="M22.3311 22.4674C20.6364 22.4674 19.2627 23.8412 19.2627 25.5358C19.2627 27.2304 20.6365 28.6041 22.3311 28.6041C24.0257 28.6041 25.3994 27.2303 25.3994 25.5358C25.3994 23.8412 24.0257 22.4674 22.3311 22.4674ZM22.3311 27.2405C21.3896 27.2405 20.6264 26.4773 20.6264 25.5358C20.6264 24.5944 21.3896 23.8312 22.3311 23.8312C23.2725 23.8312 24.0357 24.5944 24.0357 25.5358C24.0358 26.4773 23.2725 27.2405 22.3311 27.2405Z" fill="black"/>
<path d="M29.252 4.56855C29.11 4.41343 28.9157 4.31633 28.7065 4.29578L6.51183 3.98894L5.89815 2.11379C5.46583 0.860278 4.29199 0.0140302 2.96611 0H0.681866C0.30527 0 0 0.30527 0 0.681866C0 1.05846 0.30527 1.36373 0.681866 1.36373H2.96611C3.70749 1.38011 4.36032 1.85616 4.60261 2.55702L8.93246 15.6147L8.59156 16.3989C8.21131 17.3794 8.3255 18.483 8.89839 19.365C9.4658 20.2312 10.4204 20.7658 11.4554 20.7969H24.7177C25.0943 20.7969 25.3996 20.4916 25.3996 20.115C25.3996 19.7384 25.0943 19.4332 24.7177 19.4332H11.4553C10.8708 19.4185 10.3328 19.1111 10.0234 18.6149C9.71749 18.1248 9.65465 17.5211 9.85297 16.9784L10.1257 16.3647L24.479 14.8646C26.0556 14.691 27.3525 13.5443 27.7179 12.0008L29.3544 5.14803C29.4281 4.95069 29.389 4.72875 29.252 4.56855ZM26.3882 11.694C26.1669 12.6876 25.3233 13.4205 24.3085 13.5009L10.1257 14.9669L6.95505 5.35267L27.8542 5.65951L26.3882 11.694Z" fill="black"/>
</svg>
