<svg width="26" height="33" viewBox="0 0 26 33" fill="none" xmlns="http://www.w3.org/2000/svg">
<path d="M25.9748 26.983C24.6901 21.6464 23.4054 16.3098 22.0565 10.9732C21.9923 9.89315 21.7353 8.74959 21.2215 7.92369C20.3864 5.7001 15.0549 7.16132 13.1921 7.79663C12.614 5.44597 11.9717 3.09532 11.8432 0.68114C11.779 0.10936 11.2009 -0.0812334 10.8155 0.0458289C8.75997 0.0458289 6.70447 0.10936 4.58473 0.10936C3.42851 0.0458291 2.27229 0.0458289 1.05184 0.0458289C0.730667 -0.0812334 0.281026 0.0458284 0.216792 0.554077C0.0240885 1.57058 -0.0401466 2.58707 0.0240878 3.60357C0.0240878 3.6671 0.0240878 3.6671 0.0240878 3.73063C0.0883222 4.04829 0.281026 4.36595 0.730667 4.36595C3.17158 4.42948 5.67672 4.30241 8.11763 3.98476C8.4388 5.76363 8.88844 7.47897 9.33808 9.25784C6.70447 10.3379 3.04311 12.3073 2.07959 15.1027C1.95112 15.4204 1.95112 15.6745 1.95112 15.9286C1.88689 16.2463 1.82265 16.6275 1.95112 16.9451C2.01536 17.1992 2.14382 17.4534 2.27229 17.7075V17.771C2.72193 18.5969 3.36428 19.2322 4.13509 19.6134C7.47528 24.1877 11.0724 28.5713 14.9907 32.6373C15.0549 32.7008 15.1192 32.7644 15.1834 32.7644C15.8258 33.2091 17.0462 32.955 18.0097 32.5738C20.7076 32.002 23.1485 30.2231 25.1398 28.4442C25.2682 28.3807 25.3967 28.2537 25.5252 28.1266C25.6536 27.936 25.7821 27.7454 25.8463 27.4913C25.9748 27.4277 26.039 27.2372 25.9748 26.983ZM10.9439 4.42948C11.3936 6.58954 12.0359 8.74959 12.4213 10.9732V11.0367C12.2286 11.3544 11.7148 11.545 11.4578 11.4179C11.4578 11.2908 11.4578 11.1638 11.3294 11.0367C10.8155 9.00372 10.2374 6.97072 9.78772 4.93773C9.98043 4.87419 10.1089 4.74713 10.3016 4.6836C10.5585 4.62007 10.7512 4.49301 10.9439 4.42948ZM10.8155 3.6671C10.687 3.73063 10.5585 3.79417 10.3658 3.8577C10.2374 3.92123 10.0447 3.98476 9.91619 4.04829C9.91619 4.04829 9.78772 4.11182 9.72349 4.11182C9.72349 3.98476 9.65925 3.8577 9.65925 3.73063C10.0447 3.54004 10.3658 3.34945 10.7512 3.22239C10.7512 3.41298 10.7512 3.54004 10.8155 3.6671ZM8.75997 2.39648C6.31906 2.71414 3.94239 2.8412 1.50148 2.8412C1.50148 2.39648 1.50148 2.01529 1.56572 1.57058C4.5205 1.50704 7.47528 1.50704 10.4943 1.44351C10.5585 1.8247 10.5585 2.20589 10.6228 2.58707C10.2374 2.71414 9.85196 2.90473 9.53078 3.09532V3.03179C9.40231 2.6506 9.20961 2.33295 8.75997 2.39648ZM3.68545 16.691C3.42851 16.1827 3.42851 15.4204 3.74969 14.9121C4.26356 14.0862 5.09861 13.4509 5.80519 12.8791C6.96141 11.9262 8.31033 11.1638 9.72349 10.592C9.78772 10.7826 9.78772 10.9732 9.85196 11.1002C9.85196 11.1638 9.85196 11.2273 9.85196 11.2908C9.91619 12.4344 11.1366 13.1332 12.2286 12.8791C13.3849 12.625 14.0914 11.545 13.8987 10.4014C13.8345 10.2108 13.7703 10.0837 13.6418 10.0202C13.5776 9.76609 13.5133 9.51197 13.4491 9.25784C14.5411 8.87666 19.0375 7.60603 19.6798 8.62253C19.6798 8.81312 19.7441 9.06725 19.7441 9.25784C19.7441 9.32137 19.7441 9.38491 19.7441 9.44844C19.7441 9.76609 19.6798 10.0202 19.6156 10.3379C19.5514 10.4649 19.4871 10.592 19.3587 10.7191C17.4316 12.9426 11.6505 15.1662 7.92492 16.3733C6.51177 16.7545 5.09861 17.0086 3.68545 16.691ZM5.61248 18.5969C9.59502 17.4534 13.4491 15.738 17.1747 13.8956C18.1382 13.3874 19.3587 12.7521 20.2579 11.9897C18.7163 15.8651 10.4301 17.4534 6.96141 18.5334C6.576 18.5969 6.19059 18.5969 5.74095 18.5969C5.74095 18.5969 5.67672 18.5969 5.61248 18.5969ZM6.3833 20.1217C6.576 20.1217 6.70447 20.1217 6.89717 20.1217C8.4388 19.9946 9.91619 19.5499 11.3294 19.0416C12.4213 18.6605 13.4491 18.2793 14.5411 17.771C17.3032 16.7545 19.9368 15.4204 21.1572 13.3874C21.7353 15.8015 22.3134 18.1522 22.8915 20.5664C19.6156 22.4088 15.7615 23.5524 12.0359 23.1076C11.3293 22.9806 10.687 22.8535 10.0447 22.5994C9.27385 22.2817 8.11763 21.9641 7.34681 21.4558C7.02564 21.0111 6.70447 20.5664 6.3833 20.1217ZM24.3047 27.3007C22.0565 29.3972 18.9732 31.5573 15.7615 31.3032C13.4491 28.9525 11.3293 26.4748 9.27385 23.87C13.8987 25.3948 18.9732 24.3147 23.277 21.9641C23.6624 23.5523 24.0478 25.1406 24.4332 26.7289C24.3689 26.983 24.3689 27.1101 24.3047 27.3007Z" fill="#C4C4C4"/>
</svg>
