<svg width="28" height="28" viewBox="0 0 28 28" fill="none" xmlns="http://www.w3.org/2000/svg">
<path d="M26.7794 11.4662L24.5297 9.21651C24.4598 9.14659 24.3768 9.09113 24.2854 9.05329C24.1941 9.01545 24.0961 8.99597 23.9973 8.99597C23.8984 8.99597 23.8005 9.01545 23.7091 9.05329C23.6178 9.09113 23.5348 9.14659 23.4648 9.21651C23.3949 9.28643 23.3395 9.36944 23.3016 9.46079C23.2638 9.55215 23.2443 9.65006 23.2443 9.74894C23.2443 9.84782 23.2638 9.94573 23.3016 10.0371C23.3395 10.1284 23.3949 10.2114 23.4648 10.2814L24.4397 11.2487H20.2478C20.0489 11.2487 19.8581 11.3277 19.7175 11.4684C19.5769 11.609 19.4979 11.7998 19.4979 11.9986C19.4979 12.1975 19.5769 12.3883 19.7175 12.5289C19.8581 12.6695 20.0489 12.7485 20.2478 12.7485H24.4397L23.4648 13.7159C23.3945 13.7856 23.3388 13.8686 23.3007 13.9599C23.2626 14.0513 23.243 14.1493 23.243 14.2483C23.243 14.3473 23.2626 14.4453 23.3007 14.5367C23.3388 14.6281 23.3945 14.7111 23.4648 14.7808C23.5345 14.8511 23.6175 14.9068 23.7089 14.9449C23.8003 14.983 23.8983 15.0026 23.9973 15.0026C24.0963 15.0026 24.1943 14.983 24.2857 14.9449C24.377 14.9068 24.46 14.8511 24.5297 14.7808L26.7794 12.5311C26.8497 12.4614 26.9055 12.3784 26.9435 12.287C26.9816 12.1956 27.0012 12.0976 27.0012 11.9986C27.0012 11.8996 26.9816 11.8016 26.9435 11.7102C26.9055 11.6189 26.8497 11.5359 26.7794 11.4662Z" fill="#E60000"/>
<path d="M15.7484 0.000238621H0.750412C0.58978 -0.00403237 0.432894 0.049149 0.307971 0.150218C0.216645 0.222269 0.141913 0.313147 0.0888578 0.416669C0.0358028 0.520191 0.00567082 0.633927 0.000512328 0.750138V23.2471C-0.00571082 23.4154 0.0449089 23.5809 0.144216 23.717C0.243523 23.853 0.385734 23.9517 0.547939 23.997L11.0465 26.9966C11.1136 27.0075 11.182 27.0075 11.249 26.9966C11.4479 26.9966 11.6386 26.9176 11.7793 26.777C11.9199 26.6363 11.9989 26.4456 11.9989 26.2467V23.997H15.7484C15.9473 23.997 16.138 23.918 16.2787 23.7774C16.4193 23.6367 16.4983 23.446 16.4983 23.2471V0.750138C16.4983 0.551252 16.4193 0.360513 16.2787 0.219879C16.138 0.0792458 15.9473 0.000238621 15.7484 0.000238621ZM4.49991 14.2483C4.49991 14.4472 4.4209 14.638 4.28027 14.7786C4.13964 14.9192 3.9489 14.9982 3.75001 14.9982C3.55112 14.9982 3.36038 14.9192 3.21975 14.7786C3.07912 14.638 3.00011 14.4472 3.00011 14.2483V12.7485C3.00011 12.5496 3.07912 12.3589 3.21975 12.2183C3.36038 12.0776 3.55112 11.9986 3.75001 11.9986C3.9489 11.9986 4.13964 12.0776 4.28027 12.2183C4.4209 12.3589 4.49991 12.5496 4.49991 12.7485V14.2483ZM14.9985 22.4972H11.9989V3.74974C12.0051 3.58142 11.9545 3.41592 11.8552 3.27988C11.7559 3.14384 11.6137 3.0452 11.4515 2.99984L6.10469 1.50004H14.9985V22.4972Z" fill="#E60000"/>
</svg>
