<svg width="256" height="61" viewBox="0 0 256 61" fill="none" xmlns="http://www.w3.org/2000/svg">
<path d="M76 3V61" stroke="#34B680"/>
<path d="M54.8652 37.1426C53.303 36.3615 53.2874 37.5075 53.1612 38.0952C53.0349 38.6828 52.8893 41.9022 51.2577 43.5337C50.7395 44.6214 52.5219 44.9536 54.8652 42.6103C57.2085 40.267 56.4274 37.9237 54.8652 37.1426Z" fill="url(#paint0_linear)"/>
<path fill-rule="evenodd" clip-rule="evenodd" d="M23.47 56.4855C23.5968 56.6094 23.6501 56.7802 23.6292 56.9436C25.4195 57.3934 27.294 57.6324 29.225 57.6324C41.8663 57.6324 52.1141 47.3846 52.1141 34.7432C52.1141 26.7679 48.0356 19.7448 41.848 15.6464C41.5975 15.4805 41.529 15.143 41.6949 14.8926C41.8607 14.6422 42.1982 14.5737 42.4486 14.7395C42.5707 14.8204 42.6921 14.9024 42.8126 14.9855C44.8658 14.3923 48.686 12.9889 47.3945 9.32952C45.7629 4.70675 40.5963 3.61905 37.0613 3.34712C33.5262 3.07519 29.7192 3.07519 25.6403 5.52254C25.2817 5.73769 24.9252 5.99068 24.5732 6.27319C24.3844 6.384 24.3047 6.50244 24.2136 6.63794C24.1254 6.76912 24.0264 6.91629 23.8072 7.08802C22.0444 8.46882 20.571 10.7863 19.5267 12.8115C19.009 13.8154 18.6053 14.7306 18.3311 15.3945C18.1941 15.7262 18.0897 15.9946 18.0199 16.1792C17.985 16.2714 17.9587 16.3427 17.9413 16.3905C17.9326 16.4144 17.9262 16.4324 17.922 16.4442L17.9173 16.4571L17.9161 16.4606C17.8168 16.744 17.5065 16.8933 17.223 16.7939C16.9396 16.6945 16.7903 16.3842 16.8897 16.1008L17.4029 16.2807C16.8897 16.1008 16.8899 16.1001 16.8899 16.1001L16.8919 16.0944L16.8976 16.0785L16.904 16.0605L16.9191 16.0187C16.938 15.9668 16.9659 15.8911 17.0025 15.7942C17.0758 15.6006 17.1842 15.3221 17.3257 14.9793C17.6086 14.2943 18.0251 13.3503 18.5599 12.313C19.6208 10.2557 21.1818 7.76287 23.1365 6.23173C23.1425 6.22701 23.1471 6.22189 23.1505 6.2166C21.4347 5.56966 19.5289 5.7064 17.7296 6.24837C15.9161 6.79459 14.2601 7.73854 13.1104 8.61792C10.6025 10.5362 8.09508 13.3252 6.84325 17.3479C6.23385 19.3061 6.35797 21.9404 6.65837 24.1433C6.80701 25.2334 6.99561 26.1966 7.14706 26.8871C7.22272 27.2321 7.28897 27.5084 7.33608 27.6976C7.35964 27.7922 7.3784 27.865 7.39115 27.9137L7.40058 27.9495L7.40561 27.9684L7.40917 27.9816L7.40998 27.9846L7.41016 27.9852C7.48934 28.2749 7.31872 28.574 7.02903 28.6532C6.73931 28.7325 6.44021 28.5618 6.36096 28.2721L6.88474 28.1289C6.36096 28.2721 6.36078 28.2715 6.36078 28.2715L6.35925 28.2658L6.35492 28.2497L6.34988 28.2308L6.3389 28.1892C6.3251 28.1365 6.30526 28.0594 6.2806 27.9604C6.23129 27.7624 6.16268 27.4761 6.0846 27.1201C5.92856 26.4087 5.73413 25.416 5.58063 24.2903C5.32338 22.4037 5.17163 20.0814 5.54631 18.0785C2.62706 19.3785 1.00107 22.8773 0.502871 25.2248C0.237133 26.477 0.0113793 27.7814 0 29.161C0.00331541 29.6363 0.0252676 30.1172 0.0699436 30.5986C0.189932 31.7087 0.474063 32.8686 1.00328 34.0893C1.43652 35.0885 2.20563 36.1136 3.07039 37.0593C3.02894 37.1094 2.98808 37.1603 2.9478 37.212C3.75437 38.0786 4.61361 38.7991 5.2796 39.3077C5.62016 39.5678 5.90823 39.771 6.11009 39.9085C6.21097 39.9772 6.29019 40.0294 6.34351 40.064C6.37017 40.0814 6.39034 40.0943 6.4035 40.1026L6.4179 40.1117L6.42155 40.114C6.67648 40.2726 6.75461 40.6079 6.59605 40.8629C6.43745 41.118 6.10174 41.196 5.84667 41.0374C5.84667 41.0374 5.84702 41.0376 6.1342 40.5757L5.84667 41.0374L5.84454 41.036L5.83924 41.0327L5.82041 41.0208C5.80427 41.0106 5.78103 40.9957 5.75122 40.9763C5.6916 40.9376 5.60568 40.881 5.49775 40.8075C5.28198 40.6605 4.97771 40.4458 4.61942 40.1722C4.02525 39.7184 3.27712 39.0985 2.53616 38.3528C1.76298 39.4794 1.32299 40.8072 1.17401 42.1092C1.00202 43.6124 1.22331 45.0312 1.71471 46.0193C2.77409 48.1496 4.95291 50.8836 7.73632 52.3725C9.00723 53.0523 10.8826 53.1511 12.5578 53.0412C13.4252 52.9842 14.208 52.8738 14.7743 52.7773C15.057 52.7292 15.2847 52.6848 15.4409 52.6525C15.5189 52.6364 15.579 52.6234 15.619 52.6146L15.6384 52.6102L15.6637 52.6045L15.6743 52.6021L15.6769 52.6015C15.9692 52.5327 16.262 52.7138 16.3308 53.0062C16.3997 53.2985 16.2184 53.5914 15.926 53.6603L15.9255 53.6604L15.9243 53.6607L15.9203 53.6616L15.9063 53.6648C15.8942 53.6676 15.8768 53.6715 15.8544 53.6765C15.8094 53.6865 15.7441 53.7006 15.6606 53.7178C15.4936 53.7523 15.2534 53.7991 14.9568 53.8496C14.4666 53.9331 13.8196 54.0269 13.0929 54.0909C13.07 54.7656 13.2223 55.4343 13.4852 56.0206C13.8066 56.737 14.2722 57.2848 14.7189 57.5635C15.7634 58.2152 17.475 58.815 19.1104 58.6829C19.8332 58.6245 20.7093 58.124 21.4629 57.5603C21.8264 57.2884 22.1381 57.0198 22.359 56.819C22.4692 56.7189 22.5561 56.6362 22.6148 56.5792C22.6297 56.5648 22.6427 56.552 22.6539 56.541C22.6647 56.5303 22.6738 56.5213 22.681 56.5142L22.697 56.4981L22.7009 56.4942C22.9109 56.2794 23.2552 56.2755 23.47 56.4855Z" fill="url(#paint1_linear)"/>
<path d="M53.188 35.5666C53.7056 35.3226 54.3727 35.0994 55.0809 35.0994C55.8435 35.0994 56.7378 35.7166 57.4801 36.2288C58.2584 36.7659 58.8695 37.1876 58.9864 36.6616C60.2015 31.1939 58.9864 28.0695 56.6431 25.7262C55.4715 24.5546 52.9974 23.0625 50.5232 21.5704C49.771 21.1167 48.632 20.7449 48.486 20.9034C48.4723 20.9523 48.5859 21.0715 48.7859 21.2816C49.8239 22.3713 53.1902 25.9056 53.2018 34.7432C53.2018 35.0188 53.1972 35.2933 53.188 35.5666Z" fill="url(#paint2_linear)"/>
<path d="M40.581 26.2363C41.1366 28.1117 38.9274 25.9302 37.3584 26.395C35.7894 26.8599 35.4547 29.7949 34.8991 27.9196C34.3436 26.0442 35.1651 24.1471 36.7341 23.6822C38.3031 23.2174 40.0254 24.3609 40.581 26.2363Z" fill="white"/>
<path d="M110.627 19.6766C111.157 19.6766 111.548 19.6997 111.801 19.7457C112.078 19.7688 112.377 19.8724 112.7 20.0567C113.045 20.2409 113.287 20.5518 113.425 20.9894C113.563 21.427 113.632 22.0144 113.632 22.7514C113.632 23.4884 113.563 24.0757 113.425 24.5133C113.287 24.9509 113.045 25.2618 112.7 25.4461C112.354 25.6073 112.043 25.7109 111.767 25.757C111.514 25.78 111.11 25.7916 110.558 25.7916H99.9862V29.2809H106.792C107.345 29.2809 107.748 29.3039 108.001 29.35C108.278 29.373 108.589 29.4766 108.934 29.6609C109.533 30.0064 109.832 30.9161 109.832 32.3901C109.832 34.0024 109.395 34.9582 108.519 35.2576C108.151 35.3727 107.564 35.4303 106.757 35.4303H99.9862V41.9598C99.9862 42.5126 99.9631 42.9156 99.9171 43.169C99.894 43.4223 99.7904 43.7217 99.6061 44.0672C99.2837 44.6891 98.3855 45 96.9114 45C95.2992 45 94.3549 44.5624 94.0785 43.6872C93.9403 43.3187 93.8712 42.7314 93.8712 41.9253V22.7168C93.8712 21.5422 94.09 20.7476 94.5276 20.333C94.9652 19.8954 95.7944 19.6766 97.0151 19.6766H110.627ZM112.246 35.914C112.246 33.1502 113.214 30.87 115.148 29.0736C117.083 27.2771 119.294 26.3789 121.781 26.3789C124.269 26.3789 126.468 27.2771 128.38 29.0736C130.292 30.847 131.247 33.1156 131.247 35.8794C131.247 37.7911 130.752 39.4954 129.762 40.9925C128.771 42.4665 127.562 43.5605 126.134 44.2745C124.729 44.9655 123.267 45.3109 121.747 45.3109C120.227 45.3109 118.753 44.9424 117.325 44.2054C115.897 43.4454 114.688 42.3398 113.697 40.8888C112.73 39.4148 112.246 37.7565 112.246 35.914ZM119.467 38.4014C120.204 38.9542 120.952 39.2306 121.712 39.2306C122.472 39.2306 123.232 38.9427 123.992 38.3669C124.752 37.7911 125.132 36.9389 125.132 35.8103C125.132 34.6818 124.775 33.8411 124.061 33.2884C123.348 32.7356 122.576 32.4592 121.747 32.4592C120.918 32.4592 120.146 32.7471 119.432 33.3229C118.718 33.8987 118.361 34.7509 118.361 35.8794C118.361 36.985 118.73 37.8256 119.467 38.4014ZM132.961 35.914C132.961 33.1502 133.929 30.87 135.863 29.0736C137.798 27.2771 140.009 26.3789 142.496 26.3789C144.984 26.3789 147.183 27.2771 149.095 29.0736C151.007 30.847 151.962 33.1156 151.962 35.8794C151.962 37.7911 151.467 39.4954 150.477 40.9925C149.487 42.4665 148.277 43.5605 146.849 44.2745C145.444 44.9655 143.982 45.3109 142.462 45.3109C140.942 45.3109 139.468 44.9424 138.04 44.2054C136.612 43.4454 135.403 42.3398 134.412 40.8888C133.445 39.4148 132.961 37.7565 132.961 35.914ZM140.182 38.4014C140.919 38.9542 141.667 39.2306 142.427 39.2306C143.187 39.2306 143.947 38.9427 144.707 38.3669C145.467 37.7911 145.848 36.9389 145.848 35.8103C145.848 34.6818 145.491 33.8411 144.777 33.2884C144.063 32.7356 143.291 32.4592 142.462 32.4592C141.633 32.4592 140.861 32.7471 140.147 33.3229C139.433 33.8987 139.076 34.7509 139.076 35.8794C139.076 36.985 139.445 37.8256 140.182 38.4014ZM166.39 19.2275C166.574 18.882 166.885 18.6402 167.323 18.502C167.76 18.3638 168.336 18.2947 169.05 18.2947C169.787 18.2947 170.374 18.3638 170.812 18.502C171.25 18.6402 171.549 18.882 171.71 19.2275C171.894 19.573 171.998 19.8839 172.021 20.1603C172.067 20.4136 172.09 20.8052 172.09 21.3349V41.9598C172.09 42.4895 172.067 42.8926 172.021 43.169C171.998 43.4223 171.894 43.7102 171.71 44.0327C171.365 44.6545 170.386 44.9655 168.774 44.9655C167.184 44.9655 166.298 44.4012 166.113 43.2726C165.146 44.3781 163.799 44.9309 162.071 44.9309C159.999 44.9309 158.11 44.0327 156.406 42.2362C154.701 40.4167 153.849 38.3093 153.849 35.914C153.849 33.4957 154.701 31.3767 156.406 29.5572C158.133 27.7377 160.022 26.828 162.071 26.828C163.776 26.828 165.1 27.4038 166.044 28.5554V21.3004C166.044 20.7706 166.056 20.3791 166.079 20.1258C166.125 19.8494 166.229 19.55 166.39 19.2275ZM160.793 37.9868C161.392 38.6087 162.117 38.9196 162.97 38.9196C163.822 38.9196 164.524 38.6087 165.077 37.9868C165.653 37.365 165.941 36.6856 165.941 35.9485C165.941 35.1885 165.664 34.486 165.112 33.8411C164.582 33.1962 163.856 32.8738 162.935 32.8738C162.014 32.8738 161.277 33.1962 160.724 33.8411C160.171 34.463 159.895 35.1539 159.895 35.914C159.895 36.674 160.194 37.365 160.793 37.9868ZM186.657 28.7281C186.796 27.4383 187.705 26.7934 189.387 26.7934C190.285 26.7934 190.953 26.8625 191.39 27.0007C191.828 27.1389 192.127 27.3807 192.289 27.7262C192.473 28.0717 192.577 28.3826 192.6 28.659C192.646 28.9123 192.669 29.3039 192.669 29.8336V41.9253C192.669 42.455 192.646 42.8581 192.6 43.1344C192.577 43.3878 192.484 43.6872 192.323 44.0327C192.001 44.6315 191.206 44.9309 189.939 44.9309C188.696 44.9309 187.855 44.7812 187.417 44.4818C187.003 44.1593 186.761 43.6987 186.692 43.0999C185.84 44.3206 184.412 44.9309 182.408 44.9309C180.427 44.9309 178.585 44.0212 176.88 42.2016C175.176 40.3821 174.324 38.2747 174.324 35.8794C174.324 33.4611 175.176 31.3537 176.88 29.5572C178.608 27.7377 180.496 26.828 182.546 26.828C183.329 26.828 184.043 26.9662 184.688 27.2426C185.333 27.5189 185.782 27.7838 186.036 28.0371C186.289 28.2675 186.496 28.4978 186.657 28.7281ZM180.37 35.914C180.37 36.674 180.669 37.365 181.268 37.9868C181.867 38.5857 182.592 38.8851 183.444 38.8851C184.297 38.8851 184.999 38.5742 185.552 37.9523C186.128 37.3304 186.416 36.651 186.416 35.914C186.416 35.1539 186.139 34.4515 185.586 33.8066C185.057 33.1617 184.331 32.8393 183.41 32.8393C182.512 32.8393 181.775 33.1617 181.199 33.8066C180.646 34.4515 180.37 35.1539 180.37 35.914ZM205.545 26.7934C207.848 26.7934 209.759 27.6802 211.28 29.4536C212.823 31.204 213.594 33.346 213.594 35.8794V41.9598C213.594 42.4895 213.571 42.8926 213.525 43.169C213.502 43.4223 213.41 43.7102 213.249 44.0327C212.926 44.6545 212.028 44.9655 210.554 44.9655C208.919 44.9655 207.974 44.5394 207.721 43.6872C207.583 43.2957 207.514 42.7083 207.514 41.9253V35.8449C207.514 34.9006 207.237 34.1636 206.685 33.6339C206.155 33.1041 205.429 32.8393 204.508 32.8393C203.61 32.8393 202.873 33.1156 202.297 33.6684C201.744 34.2212 201.468 34.9467 201.468 35.8449V41.9598C201.468 42.4895 201.445 42.8926 201.399 43.169C201.376 43.4223 201.272 43.7102 201.088 44.0327C200.789 44.6545 199.902 44.9655 198.428 44.9655C196.977 44.9655 196.09 44.6545 195.768 44.0327C195.606 43.6872 195.503 43.3878 195.457 43.1344C195.434 42.8581 195.422 42.455 195.422 41.9253V29.6954C195.422 29.1887 195.434 28.8087 195.457 28.5554C195.503 28.279 195.618 27.9796 195.802 27.6571C196.125 27.0813 197.011 26.7934 198.462 26.7934C199.867 26.7934 200.731 27.0583 201.053 27.588C201.284 27.9796 201.399 28.4517 201.399 29.0045C201.491 28.8433 201.698 28.6129 202.021 28.3135C202.343 28.0141 202.654 27.7723 202.954 27.588C203.737 27.0583 204.6 26.7934 205.545 26.7934ZM233.924 33.7375C233.924 35.1424 233.567 36.1904 232.853 36.8813C232.162 37.5492 231.39 37.8832 230.538 37.8832H222.35C222.35 38.5281 222.73 39.0693 223.49 39.5069C224.25 39.9445 225.01 40.1633 225.77 40.1633C227.106 40.1633 228.154 40.0252 228.914 39.7488L229.294 39.6106C229.847 39.3572 230.308 39.2306 230.676 39.2306C231.413 39.2306 232.046 39.7488 232.576 40.7852C232.876 41.4071 233.025 41.9368 233.025 42.3744C233.025 44.4242 230.572 45.4491 225.667 45.4491C223.962 45.4491 222.442 45.1612 221.106 44.5854C219.794 43.9866 218.769 43.2035 218.032 42.2362C216.581 40.3706 215.855 38.2863 215.855 35.9831C215.855 33.0811 216.788 30.7664 218.654 29.039C220.542 27.2886 222.891 26.4134 225.701 26.4134C228.903 26.4134 231.252 27.542 232.749 29.7991C233.532 30.9967 233.924 32.3095 233.924 33.7375ZM226.634 34.7394C227.509 34.7394 227.947 34.3709 227.947 33.6339C227.947 33.1041 227.74 32.678 227.325 32.3556C226.933 32.0331 226.358 31.8719 225.598 31.8719C224.861 31.8719 224.124 32.1829 223.387 32.8047C222.65 33.4035 222.281 34.0484 222.281 34.7394H226.634ZM235.659 35.914C235.659 33.1502 236.627 30.87 238.561 29.0736C240.496 27.2771 242.707 26.3789 245.194 26.3789C247.682 26.3789 249.881 27.2771 251.793 29.0736C253.705 30.847 254.66 33.1156 254.66 35.8794C254.66 37.7911 254.165 39.4954 253.175 40.9925C252.185 42.4665 250.975 43.5605 249.547 44.2745C248.142 44.9655 246.68 45.3109 245.16 45.3109C243.64 45.3109 242.166 44.9424 240.738 44.2054C239.31 43.4454 238.101 42.3398 237.11 40.8888C236.143 39.4148 235.659 37.7565 235.659 35.914ZM242.88 38.4014C243.617 38.9542 244.365 39.2306 245.125 39.2306C245.885 39.2306 246.645 38.9427 247.405 38.3669C248.166 37.7911 248.546 36.9389 248.546 35.8103C248.546 34.6818 248.189 33.8411 247.475 33.2884C246.761 32.7356 245.989 32.4592 245.16 32.4592C244.331 32.4592 243.559 32.7471 242.845 33.3229C242.131 33.8987 241.774 34.7509 241.774 35.8794C241.774 36.985 242.143 37.8256 242.88 38.4014Z" fill="#34B680"/>
<defs>
<linearGradient id="paint0_linear" x1="58.082" y1="40.5666" x2="34.3616" y2="41.2458" gradientUnits="userSpaceOnUse">
<stop offset="0.0625" stop-color="#FFE600"/>
<stop offset="0.34375" stop-color="#34C94C"/>
<stop offset="0.671875" stop-color="#34B680"/>
<stop offset="1" stop-color="#34A5C9"/>
</linearGradient>
<linearGradient id="paint1_linear" x1="63.7669" y1="28.2634" x2="1.63494" y2="31.0226" gradientUnits="userSpaceOnUse">
<stop offset="0.0625" stop-color="#FFE600"/>
<stop offset="0.34375" stop-color="#34C94C"/>
<stop offset="0.671875" stop-color="#34B680"/>
<stop offset="1" stop-color="#34A5C9"/>
</linearGradient>
<linearGradient id="paint2_linear" x1="63.7669" y1="28.2634" x2="1.63494" y2="31.0226" gradientUnits="userSpaceOnUse">
<stop offset="0.0625" stop-color="#FFE600"/>
<stop offset="0.34375" stop-color="#34C94C"/>
<stop offset="0.671875" stop-color="#34B680"/>
<stop offset="1" stop-color="#34A5C9"/>
</linearGradient>
</defs>
</svg>
