<svg width="38" height="32" viewBox="0 0 38 32" fill="none" xmlns="http://www.w3.org/2000/svg">
<path fill-rule="evenodd" clip-rule="evenodd" d="M16.6172 1.58837C17.1394 0.995977 18.0371 0.220325 19.2643 0.038088C20.3092 -0.11623 21.2901 0.216773 22.0826 0.705108C22.6615 1.06095 23.1315 1.49294 23.4411 1.81478C26.6451 1.38736 29.6591 2.01681 31.7329 3.46253C34.0704 5.09302 35.5531 7.15144 37.1114 10.0388C37.7398 11.2028 38.122 12.3155 37.9646 13.4049C37.8052 14.512 37.1134 15.6643 35.3415 16.808C32.2964 18.7745 21.1793 26.6189 14.1842 30.0616C13.9427 30.1709 13.6679 30.1827 13.4178 30.0944C13.1677 30.0061 12.962 29.8246 12.8441 29.5883C12.7263 29.352 12.7055 29.0795 12.7863 28.8283C12.867 28.5771 13.043 28.3669 13.2768 28.2422C20.2055 24.832 31.2112 17.0537 34.2277 15.1054C35.3099 14.4069 35.8443 13.7932 35.9419 13.117C36.0415 12.4236 35.7104 11.7393 35.3104 10.9987C33.9242 8.43065 32.6377 6.57427 30.5588 5.12449C28.7593 3.86964 26.1301 3.40009 23.3456 3.86253C23.2609 3.889 23.1732 3.90435 23.0845 3.90822C21.2247 4.25442 19.3052 5.01535 17.5252 6.23467C14.0008 8.64995 12.7833 11.9982 12.3516 15.5029C11.8876 19.2715 12.2994 23.2233 12.0026 26.5549C11.7129 29.8057 10.4535 31.2174 9.14296 31.7398C8.2887 32.0804 7.3532 32.0621 6.47748 31.8266C5.27119 31.5017 4.19467 30.7616 3.67456 30.1971C2.01814 28.4016 0 25.4148 0 19.4441C0 10.7723 7.27656 6.12654 8.75772 5.27119C9.28448 4.50163 10.0795 4.10518 10.8857 3.93614C11.3235 3.8493 11.7702 3.81572 12.2162 3.83614C12.3066 3.6072 12.4261 3.35846 12.581 3.1148C12.9641 2.51276 13.5512 1.95234 14.4095 1.7097C15.3481 1.44421 16.092 1.47771 16.6172 1.58837ZM20.9044 2.37012C20.5166 2.14676 20.0593 1.97366 19.5658 2.04676C18.4601 2.21022 17.869 3.29196 17.869 3.29196C17.8009 3.41205 17.7089 3.51709 17.5986 3.60069C17.4883 3.68429 17.362 3.74469 17.2274 3.77823C17.0928 3.81176 16.9528 3.81771 16.8158 3.79573C16.6789 3.77374 16.5479 3.72428 16.4308 3.65035L16.4568 3.66608C16.4568 3.66608 15.8366 3.41735 14.9685 3.66253C14.5541 3.77979 14.3324 4.12142 14.1914 4.40975C14.0187 4.76306 13.9686 5.0783 13.9686 5.0783C13.9487 5.2165 13.9004 5.34914 13.8266 5.46795C13.7528 5.58676 13.6552 5.68918 13.5398 5.76882C13.4244 5.84847 13.2937 5.90362 13.1559 5.93085C13.0181 5.95807 12.8761 5.95677 12.7388 5.92704C12.7388 5.92704 12.0261 5.77273 11.3072 5.92298C10.9588 5.99608 10.5894 6.13872 10.3896 6.50777C9.49345 8.16263 10.9664 9.53524 10.9664 9.53524C11.1094 9.67146 11.2094 9.84602 11.2544 10.0377C11.2993 10.2294 11.2872 10.4299 11.2195 10.6148C11.1519 10.7998 11.0316 10.9612 10.8732 11.0795C10.7149 11.1978 10.5254 11.2677 10.3278 11.281C10.3278 11.281 9.85876 11.3155 9.35806 11.5104C8.99684 11.651 8.56511 11.8607 8.47723 12.3323C8.2703 13.4414 8.8737 14.0719 8.8737 14.0719C9.01318 14.2019 9.11312 14.3682 9.16215 14.5519C9.21119 14.7356 9.20736 14.9293 9.15109 15.1109C9.09483 15.2925 8.98838 15.4548 8.84387 15.5793C8.69936 15.7038 8.52259 15.7855 8.33366 15.8151C8.33366 15.8151 7.51107 15.9963 7.32918 17.0136C7.1381 18.0786 7.83704 18.5923 7.83704 18.5923C7.95923 18.6713 8.063 18.7754 8.14141 18.8975C8.21981 19.0196 8.27104 19.157 8.29165 19.3003C8.31226 19.4437 8.30178 19.5899 8.26091 19.7289C8.22005 19.8679 8.14974 19.9967 8.05469 20.1065C8.05469 20.1065 6.70637 21.6076 6.70637 23.1244C6.70535 25.1899 8.03273 25.7945 8.03273 25.7945C8.27882 25.8964 8.47511 26.0898 8.57974 26.3334C8.68438 26.577 8.68909 26.8516 8.59286 27.0987C8.49663 27.3457 8.30707 27.5456 8.06462 27.6558C7.82216 27.766 7.54597 27.7777 7.29495 27.6884C7.29495 27.6884 4.66115 26.7727 4.66268 23.1244C4.66268 21.7507 5.40454 20.372 5.94765 19.5476C5.50161 18.9573 5.0755 18.006 5.31717 16.6582C5.52716 15.4805 6.1183 14.7836 6.6936 14.3739C6.4458 13.78 6.27975 12.9703 6.46777 11.9627C6.65783 10.9414 7.33174 10.2667 8.1063 9.852C8.26315 9.76773 8.42409 9.69514 8.58299 9.63271C8.34256 9.16627 8.18001 8.66411 8.1017 8.14587C5.76167 9.92155 2.04369 13.6536 2.04369 19.4441C2.04369 24.6417 3.73893 27.2625 5.18127 28.8255C5.46227 29.1306 6.00334 29.5006 6.62667 29.7402C7.18255 29.9545 7.81507 30.0814 8.38219 29.855C9.22879 29.5179 9.77957 28.4757 9.96708 26.3762C10.266 23.0244 9.85621 19.0476 10.3232 15.2562C10.8224 11.2008 12.2872 7.35753 16.3654 4.56356C17.757 3.60683 19.2877 2.86713 20.9044 2.37012ZM33.679 12.5241C33.6821 12.6728 33.6554 12.8205 33.6003 12.9587C33.5453 13.097 33.463 13.2229 33.3583 13.3291C33.2536 13.4353 33.1286 13.5197 32.9907 13.5773C32.8527 13.6349 32.7046 13.6645 32.555 13.6645C32.4053 13.6644 32.2572 13.6347 32.1193 13.5771C31.9814 13.5194 31.8564 13.435 31.7518 13.3287C31.6472 13.2225 31.5649 13.0965 31.5099 12.9583C31.4549 12.82 31.4282 12.6723 31.4314 12.5236C31.4378 12.2316 31.559 11.9537 31.7691 11.7495C31.9792 11.5452 32.2615 11.4308 32.5555 11.4309C32.8494 11.431 33.1317 11.5455 33.3417 11.7498C33.5517 11.9542 33.6728 12.2321 33.679 12.5241ZM31.295 9.68956C31.2982 9.83819 31.2714 9.98595 31.2164 10.1242C31.1613 10.2624 31.079 10.3883 30.9743 10.4945C30.8696 10.6007 30.7446 10.6851 30.6067 10.7427C30.4687 10.8003 30.3206 10.8299 30.171 10.8299C30.0214 10.8299 29.8733 10.8001 29.7353 10.7425C29.5974 10.6848 29.4725 10.6004 29.3678 10.4941C29.2632 10.3879 29.181 10.2619 29.1259 10.1237C29.0709 9.98545 29.0443 9.83768 29.0475 9.68905C29.0538 9.39706 29.175 9.11914 29.3851 8.91488C29.5953 8.71062 29.8775 8.59627 30.1715 8.59634C30.4655 8.59641 30.7477 8.71089 30.9577 8.91524C31.1677 9.11959 31.2888 9.39756 31.295 9.68956ZM29.7193 13.2013C29.7225 13.3499 29.6958 13.4977 29.6407 13.6359C29.5856 13.7741 29.5033 13.9001 29.3986 14.0063C29.2939 14.1125 29.1689 14.1968 29.031 14.2544C28.8931 14.312 28.7449 14.3417 28.5953 14.3416C28.4457 14.3416 28.2976 14.3119 28.1596 14.2542C28.0217 14.1966 27.8968 14.1122 27.7921 14.0059C27.6875 13.8996 27.6053 13.7737 27.5503 13.6354C27.4952 13.4972 27.4686 13.3494 27.4718 13.2008C27.4781 12.9088 27.5993 12.6309 27.8095 12.4266C28.0196 12.2224 28.3019 12.108 28.5958 12.1081C28.8898 12.1082 29.172 12.2226 29.382 12.427C29.5921 12.6313 29.7131 12.9093 29.7193 13.2013Z" fill="#C4C4C4"/>
</svg>
