<svg width="25" height="25" viewBox="0 0 25 25" fill="none" xmlns="http://www.w3.org/2000/svg">
<g clip-path="url(#clip0)">
<path d="M2.34375 2.34375C1.8802 2.34375 1.42706 2.48121 1.04163 2.73874C0.656206 2.99628 0.355801 3.36232 0.178408 3.79059C0.00101551 4.21885 -0.0453986 4.6901 0.0450356 5.14474C0.13547 5.59939 0.35869 6.017 0.68647 6.34478C1.01425 6.67256 1.43187 6.89578 1.88651 6.98622C2.34115 7.07665 2.8124 7.03024 3.24067 6.85284C3.66893 6.67545 4.03497 6.37505 4.29251 5.98962C4.55004 5.60419 4.6875 5.15105 4.6875 4.6875C4.6875 4.0659 4.44057 3.46976 4.00103 3.03022C3.56149 2.59068 2.96535 2.34375 2.34375 2.34375ZM2.34375 10.1562C1.8802 10.1562 1.42706 10.2937 1.04163 10.5512C0.656206 10.8088 0.355801 11.1748 0.178408 11.6031C0.00101551 12.0314 -0.0453986 12.5026 0.0450356 12.9572C0.13547 13.4119 0.35869 13.8295 0.68647 14.1573C1.01425 14.4851 1.43187 14.7083 1.88651 14.7987C2.34115 14.8891 2.8124 14.8427 3.24067 14.6653C3.66893 14.488 4.03497 14.1875 4.29251 13.8021C4.55004 13.4167 4.6875 12.9635 4.6875 12.5C4.6875 11.8784 4.44057 11.2823 4.00103 10.8427C3.56149 10.4032 2.96535 10.1562 2.34375 10.1562ZM2.34375 17.9688C1.8802 17.9688 1.42706 18.1062 1.04163 18.3637C0.656206 18.6213 0.355801 18.9873 0.178408 19.4156C0.00101551 19.8438 -0.0453986 20.3151 0.0450356 20.7697C0.13547 21.2244 0.35869 21.642 0.68647 21.9698C1.01425 22.2976 1.43187 22.5208 1.88651 22.6112C2.34115 22.7017 2.8124 22.6552 3.24067 22.4778C3.66893 22.3004 4.03497 22 4.29251 21.6146C4.55004 21.2292 4.6875 20.7761 4.6875 20.3125C4.6875 19.6909 4.44057 19.0948 4.00103 18.6552C3.56149 18.2157 2.96535 17.9688 2.34375 17.9688ZM24.2188 18.75H8.59375C8.38655 18.75 8.18784 18.8323 8.04132 18.9788C7.89481 19.1253 7.8125 19.324 7.8125 19.5312V21.0938C7.8125 21.301 7.89481 21.4997 8.04132 21.6462C8.18784 21.7927 8.38655 21.875 8.59375 21.875H24.2188C24.426 21.875 24.6247 21.7927 24.7712 21.6462C24.9177 21.4997 25 21.301 25 21.0938V19.5312C25 19.324 24.9177 19.1253 24.7712 18.9788C24.6247 18.8323 24.426 18.75 24.2188 18.75ZM24.2188 3.125H8.59375C8.38655 3.125 8.18784 3.20731 8.04132 3.35382C7.89481 3.50034 7.8125 3.69905 7.8125 3.90625V5.46875C7.8125 5.67595 7.89481 5.87466 8.04132 6.02118C8.18784 6.16769 8.38655 6.25 8.59375 6.25H24.2188C24.426 6.25 24.6247 6.16769 24.7712 6.02118C24.9177 5.87466 25 5.67595 25 5.46875V3.90625C25 3.69905 24.9177 3.50034 24.7712 3.35382C24.6247 3.20731 24.426 3.125 24.2188 3.125ZM24.2188 10.9375H8.59375C8.38655 10.9375 8.18784 11.0198 8.04132 11.1663C7.89481 11.3128 7.8125 11.5115 7.8125 11.7188V13.2812C7.8125 13.4885 7.89481 13.6872 8.04132 13.8337C8.18784 13.9802 8.38655 14.0625 8.59375 14.0625H24.2188C24.426 14.0625 24.6247 13.9802 24.7712 13.8337C24.9177 13.6872 25 13.4885 25 13.2812V11.7188C25 11.5115 24.9177 11.3128 24.7712 11.1663C24.6247 11.0198 24.426 10.9375 24.2188 10.9375Z" fill="#34B680"/>
</g>
<defs>
<clipPath id="clip0">
<rect width="25" height="25" fill="white"/>
</clipPath>
</defs>
</svg>
