<svg width="25" height="21" viewBox="0 0 25 21" fill="none" xmlns="http://www.w3.org/2000/svg">
<path d="M2.34375 0.34375C1.8802 0.34375 1.42706 0.481209 1.04163 0.738743C0.656206 0.996278 0.355801 1.36232 0.178408 1.79059C0.00101551 2.21885 -0.0453986 2.6901 0.0450356 3.14474C0.13547 3.59939 0.35869 4.017 0.68647 4.34478C1.01425 4.67256 1.43187 4.89578 1.88651 4.98622C2.34115 5.07665 2.8124 5.03024 3.24067 4.85284C3.66893 4.67545 4.03497 4.37505 4.29251 3.98962C4.55004 3.60419 4.6875 3.15105 4.6875 2.6875C4.6875 2.0659 4.44057 1.46976 4.00103 1.03022C3.56149 0.59068 2.96535 0.34375 2.34375 0.34375ZM2.34375 8.15625C1.8802 8.15625 1.42706 8.29371 1.04163 8.55124C0.656206 8.80878 0.355801 9.17482 0.178408 9.60309C0.00101551 10.0314 -0.0453986 10.5026 0.0450356 10.9572C0.13547 11.4119 0.35869 11.8295 0.68647 12.1573C1.01425 12.4851 1.43187 12.7083 1.88651 12.7987C2.34115 12.8891 2.8124 12.8427 3.24067 12.6653C3.66893 12.488 4.03497 12.1875 4.29251 11.8021C4.55004 11.4167 4.6875 10.9635 4.6875 10.5C4.6875 9.8784 4.44057 9.28226 4.00103 8.84272C3.56149 8.40318 2.96535 8.15625 2.34375 8.15625ZM2.34375 15.9688C1.8802 15.9688 1.42706 16.1062 1.04163 16.3637C0.656206 16.6213 0.355801 16.9873 0.178408 17.4156C0.00101551 17.8438 -0.0453986 18.3151 0.0450356 18.7697C0.13547 19.2244 0.35869 19.642 0.68647 19.9698C1.01425 20.2976 1.43187 20.5208 1.88651 20.6112C2.34115 20.7017 2.8124 20.6552 3.24067 20.4778C3.66893 20.3004 4.03497 20 4.29251 19.6146C4.55004 19.2292 4.6875 18.7761 4.6875 18.3125C4.6875 17.6909 4.44057 17.0948 4.00103 16.6552C3.56149 16.2157 2.96535 15.9688 2.34375 15.9688ZM24.2188 16.75H8.59375C8.38655 16.75 8.18784 16.8323 8.04132 16.9788C7.89481 17.1253 7.8125 17.324 7.8125 17.5312V19.0938C7.8125 19.301 7.89481 19.4997 8.04132 19.6462C8.18784 19.7927 8.38655 19.875 8.59375 19.875H24.2188C24.426 19.875 24.6247 19.7927 24.7712 19.6462C24.9177 19.4997 25 19.301 25 19.0938V17.5312C25 17.324 24.9177 17.1253 24.7712 16.9788C24.6247 16.8323 24.426 16.75 24.2188 16.75ZM24.2188 1.125H8.59375C8.38655 1.125 8.18784 1.20731 8.04132 1.35382C7.89481 1.50034 7.8125 1.69905 7.8125 1.90625V3.46875C7.8125 3.67595 7.89481 3.87466 8.04132 4.02118C8.18784 4.16769 8.38655 4.25 8.59375 4.25H24.2188C24.426 4.25 24.6247 4.16769 24.7712 4.02118C24.9177 3.87466 25 3.67595 25 3.46875V1.90625C25 1.69905 24.9177 1.50034 24.7712 1.35382C24.6247 1.20731 24.426 1.125 24.2188 1.125ZM24.2188 8.9375H8.59375C8.38655 8.9375 8.18784 9.01981 8.04132 9.16632C7.89481 9.31284 7.8125 9.51155 7.8125 9.71875V11.2812C7.8125 11.4885 7.89481 11.6872 8.04132 11.8337C8.18784 11.9802 8.38655 12.0625 8.59375 12.0625H24.2188C24.426 12.0625 24.6247 11.9802 24.7712 11.8337C24.9177 11.6872 25 11.4885 25 11.2812V9.71875C25 9.51155 24.9177 9.31284 24.7712 9.16632C24.6247 9.01981 24.426 8.9375 24.2188 8.9375Z" fill="black"/>
</svg>
