<svg width="31" height="35" viewBox="0 0 31 35" fill="none" xmlns="http://www.w3.org/2000/svg">
<mask id="path-1-outside-1_1181:1353" maskUnits="userSpaceOnUse" x="0" y="0" width="31" height="35" fill="black">
<rect fill="white" width="31" height="35"/>
<path d="M4.30069 8.11249C5.1195 9.75507 6.06088 11.4461 7.09911 13.1398C7.16025 13.2394 7.25718 13.3117 7.36998 13.342C7.48278 13.3723 7.60291 13.3583 7.7057 13.3028L7.72808 13.2907C7.7793 13.2595 7.82384 13.2184 7.85915 13.1699C7.89446 13.1214 7.91983 13.0664 7.93382 13.0081C7.94781 12.9497 7.95013 12.8892 7.94066 12.83C7.93118 12.7707 7.9101 12.714 7.87861 12.6629C6.85437 10.9915 5.92588 9.32432 5.11883 7.70527C5.02676 7.52181 5.01002 7.30964 5.07218 7.11401C5.13433 6.91838 5.27045 6.75478 5.45152 6.65808L6.09024 6.31308C6.32642 6.75033 6.72988 7.50977 7.23569 8.43369C7.29394 8.53918 7.39148 8.6174 7.50711 8.65134C7.62273 8.68527 7.74708 8.67218 7.8531 8.61491C7.90714 8.58663 7.95496 8.5478 7.99374 8.50071C8.03252 8.45363 8.06146 8.39925 8.07885 8.34079C8.09625 8.28233 8.10175 8.22097 8.09502 8.16035C8.0883 8.09973 8.06949 8.04107 8.0397 7.98784C7.23906 6.53593 6.6895 5.48817 6.68386 5.47773C6.65587 5.42402 6.61747 5.37642 6.5709 5.3377C6.52433 5.29899 6.47051 5.26993 6.41259 5.25223C6.35467 5.23453 6.29381 5.22854 6.23355 5.2346C6.17329 5.24067 6.11484 5.25867 6.06161 5.28756L5.01698 5.85182C4.62589 6.06035 4.33197 6.41367 4.1981 6.83617C4.06423 7.25868 4.10105 7.71679 4.30069 8.11249Z"/>
<path d="M3.42647 14.2394C3.47622 14.2051 3.51868 14.1613 3.55136 14.1104C3.58404 14.0596 3.6063 14.0028 3.61684 13.9433C3.62739 13.8838 3.62601 13.8228 3.61279 13.7638C3.59957 13.7049 3.57476 13.6491 3.53982 13.5998C2.88137 12.6485 2.33333 11.757 1.99053 11.1759C1.95231 11.1119 1.92745 11.0408 1.91745 10.9669C1.90745 10.8931 1.91251 10.8179 1.93233 10.7461C1.95214 10.6742 1.98631 10.6071 2.03276 10.5488C2.07922 10.4905 2.137 10.4422 2.20262 10.4069L2.74657 10.113C3.3832 11.2357 4.08533 12.3199 4.84933 13.36C4.91464 13.4487 5.00977 13.5109 5.11724 13.5352C5.22471 13.5595 5.33734 13.5442 5.43445 13.4921C5.45344 13.4819 5.47159 13.4701 5.48874 13.457C5.53714 13.4215 5.57805 13.3768 5.60915 13.3255C5.64025 13.2742 5.66092 13.2172 5.66997 13.1579C5.67902 13.0986 5.67628 13.038 5.6619 12.9798C5.64752 12.9215 5.62179 12.8667 5.58618 12.8183C4.75674 11.6901 4.00256 10.5085 3.32854 9.2811C3.27042 9.17538 3.17285 9.09692 3.05712 9.06283C2.94139 9.02875 2.81688 9.0418 2.71073 9.09914L1.77055 9.60697C1.59669 9.70085 1.44357 9.82885 1.32036 9.98332C1.19715 10.1378 1.1064 10.3155 1.05353 10.5059C1.00066 10.6963 0.986767 10.8954 1.01268 11.0913C1.0386 11.2871 1.10379 11.4758 1.20435 11.6459C1.5559 12.2396 2.11448 13.1524 2.7899 14.1244C2.82405 14.1739 2.86764 14.2161 2.91816 14.2487C2.96868 14.2813 3.02514 14.3035 3.08429 14.3142C3.14344 14.3249 3.20412 14.3238 3.26284 14.3109C3.32157 14.2981 3.37717 14.2738 3.42647 14.2394Z"/>
<path d="M11.7738 2.3005C11.7493 2.35589 11.7361 2.41557 11.7348 2.4761C11.7336 2.53663 11.7443 2.59681 11.7664 2.65318C11.7816 2.69364 13.3508 6.69805 14.5119 10.3561C14.53 10.4134 14.5592 10.4666 14.5979 10.5126C14.6366 10.5585 14.684 10.5964 14.7374 10.624C14.7907 10.6517 14.849 10.6685 14.9089 10.6735C14.9688 10.6785 15.0291 10.6716 15.0863 10.6533L15.1093 10.6446C15.2186 10.6031 15.3079 10.5214 15.3588 10.4162C15.4098 10.311 15.4186 10.1903 15.3835 10.0788C14.4391 7.0959 13.223 3.89009 12.7839 2.75052L13.4678 2.49241C13.6592 2.41942 13.8715 2.42424 14.0593 2.50582C14.2471 2.58741 14.3956 2.73929 14.4728 2.92895C15.0863 4.40792 15.6699 5.99057 16.2068 7.63437C16.2236 7.69365 16.2521 7.74893 16.2907 7.79691C16.3293 7.84489 16.3772 7.88457 16.4315 7.91358C16.4859 7.94258 16.5455 7.9603 16.6069 7.96568C16.6682 7.97106 16.73 7.96399 16.7886 7.94489C16.8471 7.92579 16.9012 7.89505 16.9476 7.85453C16.9939 7.814 17.0317 7.76453 17.0584 7.70906C17.0852 7.6536 17.1005 7.5933 17.1034 7.53178C17.1063 7.47026 17.0967 7.4088 17.0753 7.35107C16.5315 5.68445 15.9403 4.07928 15.316 2.57632C15.1478 2.16864 14.8274 1.84252 14.4227 1.6671C14.0181 1.49169 13.5611 1.48077 13.1485 1.63667L12.0298 2.05887C11.9733 2.08035 11.9216 2.11275 11.8777 2.15421C11.8338 2.19567 11.7985 2.24538 11.7738 2.3005Z"/>
<path d="M16.2391 2.30604C16.9389 3.6235 17.5454 4.98844 18.0542 6.39079C18.0953 6.50482 18.1801 6.59783 18.2898 6.64937C18.3995 6.70091 18.5252 6.70675 18.6392 6.66562C18.6606 6.65789 18.6813 6.64861 18.7013 6.63785C18.7978 6.58573 18.8722 6.50071 18.9112 6.39827C18.9502 6.29584 18.951 6.18281 18.9137 6.07979C18.442 4.77946 17.8885 3.5103 17.2564 2.27995L17.8182 1.97646C17.8814 1.94213 17.9509 1.92098 18.0225 1.91428C18.0941 1.90759 18.1663 1.91548 18.2348 1.93749C18.3029 1.95903 18.3659 1.99422 18.42 2.04092C18.474 2.08762 18.518 2.14484 18.5492 2.2091C18.8493 2.81813 19.2988 3.77532 19.7367 4.85545C19.7881 4.95828 19.8764 5.03796 19.9839 5.07861C20.0914 5.11926 20.2103 5.11791 20.3169 5.07481C20.4235 5.03171 20.5099 4.95004 20.559 4.84606C20.608 4.74209 20.6161 4.62345 20.5816 4.5138C20.133 3.40669 19.6737 2.43158 19.3675 1.80757C19.2814 1.63301 19.161 1.4776 19.0134 1.35062C18.8659 1.22364 18.6943 1.1277 18.5088 1.06853C18.3234 1.00937 18.1279 0.988185 17.9341 1.00625C17.7403 1.02432 17.5521 1.08127 17.3808 1.1737L16.4257 1.68959C16.3195 1.74693 16.2403 1.84391 16.2054 1.95938C16.1704 2.07485 16.1826 2.19946 16.2391 2.30604Z"/>
<path d="M10.7666 12.804C10.8159 12.9111 10.9047 12.9949 11.0144 13.0381C11.1241 13.0813 11.2462 13.0804 11.3553 13.0356C11.4644 12.9909 11.5519 12.9058 11.5997 12.798C11.6475 12.6902 11.6518 12.5682 11.6117 12.4573C10.182 8.9487 9.21594 5.7124 8.8189 3.09852C8.79955 2.96563 8.83351 2.83047 8.91338 2.72252C8.99326 2.61457 9.11257 2.54257 9.24531 2.52221L9.8122 2.4369C10.5907 5.81433 11.653 9.11999 12.9879 12.3186C13.0339 12.4306 13.1225 12.5198 13.2342 12.5665C13.346 12.6132 13.4716 12.6137 13.5837 12.5678C13.6375 12.5458 13.6864 12.5136 13.7279 12.4729C13.7936 12.409 13.8385 12.3268 13.8568 12.2371C13.8751 12.1473 13.866 12.0541 13.8305 11.9695C11.532 6.45322 10.6287 1.88407 10.6222 1.83599C10.5998 1.72028 10.5335 1.61773 10.4372 1.54973C10.3409 1.48174 10.2221 1.45356 10.1055 1.47108L9.11302 1.62173C8.92835 1.64935 8.75094 1.71313 8.59095 1.80942C8.43097 1.90571 8.29155 2.03261 8.18068 2.18286C8.06981 2.33311 7.98967 2.50375 7.94485 2.68502C7.90003 2.86629 7.89141 3.05462 7.91949 3.23922C8.33164 5.96129 9.29081 9.17949 10.7666 12.804Z"/>
<path d="M21.0519 6.14149C20.7905 6.09923 20.5227 6.12493 20.2742 6.21612C20.0257 6.30732 19.8048 6.46093 19.6328 6.66218C18.8727 7.5624 18.2687 8.58358 17.8459 9.68336C16.6326 12.7281 14.3389 13.9208 14.3173 13.9325L14.2919 13.9462C14.2688 13.9587 12.033 15.23 8.80499 14.5697C7.64597 14.3185 6.45289 14.2646 5.27595 14.4103C5.01773 14.4451 4.77272 14.5455 4.56425 14.7018C4.35579 14.8581 4.19079 15.0651 4.08499 15.3032C3.97614 15.5433 3.93073 15.8073 3.95312 16.07C3.97551 16.3327 4.06494 16.5852 4.21286 16.8034L5.60625 18.8691C5.67399 18.9696 5.7789 19.0392 5.8979 19.0624C6.01691 19.0856 6.14026 19.0606 6.24082 18.9928C6.34138 18.9251 6.41091 18.8202 6.43412 18.7012C6.45733 18.5822 6.43231 18.4588 6.36457 18.3583L4.96658 16.2912C4.90645 16.2007 4.87071 16.0962 4.86283 15.9878C4.85495 15.8794 4.87519 15.7708 4.9216 15.6726C4.96337 15.5759 5.02961 15.4919 5.11379 15.4287C5.19796 15.3654 5.29716 15.3253 5.4016 15.3121C6.47625 15.1826 7.56501 15.2348 8.62236 15.4664C12.0975 16.1773 14.5252 14.867 14.7399 14.7452C14.9546 14.6234 17.3864 13.3205 18.6971 10.0245C19.0829 9.01767 19.6342 8.08235 20.3282 7.25719C20.398 7.17352 20.4884 7.10942 20.5904 7.07121C20.6924 7.03299 20.8027 7.02196 20.9102 7.0392C21.0162 7.05502 21.1163 7.09815 21.2005 7.16434C21.2848 7.23054 21.3503 7.31752 21.3908 7.41674L24.8817 15.7443C24.9048 15.7997 24.9386 15.85 24.9812 15.8923C25.0238 15.9345 25.0743 15.968 25.1298 15.9908C25.1853 16.0135 25.2448 16.0251 25.3048 16.0248C25.3648 16.0245 25.4242 16.0124 25.4795 15.9892C25.4933 15.9827 25.5068 15.9754 25.5198 15.9674C25.6198 15.9132 25.6959 15.8237 25.7333 15.7163C25.7707 15.6089 25.7666 15.4914 25.7219 15.3869L22.2304 7.06539C22.1295 6.82338 21.9681 6.61134 21.7618 6.44957C21.5554 6.2878 21.311 6.18172 21.0519 6.14149Z"/>
<path d="M15.7998 33.7966L29.6494 26.3157C29.7493 26.2616 29.8254 26.1724 29.8631 26.0653C29.9007 25.9582 29.8972 25.8409 29.8531 25.7363L26.4376 17.5983C26.4367 17.5956 26.4353 17.5931 26.4336 17.5908C26.4263 17.5746 26.4178 17.5589 26.4082 17.5438C26.4031 17.5325 26.3971 17.5215 26.3905 17.511C26.3811 17.4982 26.3709 17.486 26.3601 17.4744C26.3515 17.4634 26.3423 17.4529 26.3325 17.443C26.3217 17.4334 26.3104 17.4244 26.2987 17.416C26.2871 17.4062 26.275 17.3969 26.2625 17.3883C26.2513 17.3818 26.2397 17.3765 26.2278 17.3704C26.213 17.3619 26.1977 17.3544 26.1819 17.348C26.1819 17.348 26.1795 17.3435 26.1735 17.3448C26.1639 17.3418 26.1542 17.3393 26.1444 17.3374C26.1284 17.3317 26.1119 17.3273 26.0951 17.3245C26.0812 17.3221 26.0672 17.3207 26.0532 17.3202C26.0372 17.3192 26.022 17.3177 26.0057 17.3179C25.991 17.3184 25.9763 17.3199 25.9618 17.3223C25.9474 17.3243 25.9327 17.3255 25.918 17.3286C25.9018 17.3328 25.8859 17.3379 25.8703 17.3438C25.8613 17.3486 25.8507 17.3486 25.8406 17.3531L25.8331 17.3571C25.8169 17.3644 25.8012 17.3729 25.7861 17.3825L25.754 17.3998C25.7391 17.4079 25.7267 17.4223 25.7137 17.4341C25.7044 17.4415 25.6955 17.4495 25.6872 17.4581C25.6759 17.4706 25.6653 17.4837 25.6554 17.4974C25.6474 17.5075 25.639 17.5169 25.6321 17.5274C25.6252 17.5378 25.6185 17.554 25.6121 17.5671C25.6044 17.5804 25.5977 17.5943 25.5921 17.6087L25.5879 17.6168C24.9927 19.2559 23.434 21.6718 19.3801 23.8616C15.4604 25.9788 12.6439 26.0321 10.9287 25.6708L7.55629 20.159C7.52385 20.1067 7.48119 20.0616 7.43089 20.0262C7.38059 19.9909 7.32368 19.966 7.26355 19.9532C7.20342 19.9403 7.14132 19.9398 7.08096 19.9515C7.0206 19.9632 6.96323 19.9869 6.91227 20.0214C6.86131 20.0558 6.81781 20.1001 6.78439 20.1517C6.75096 20.2033 6.72828 20.2611 6.71772 20.3217C6.70716 20.3822 6.70892 20.4443 6.72291 20.5042C6.7369 20.5641 6.76282 20.6205 6.79912 20.6701L15.2036 33.6511C15.2674 33.7448 15.3636 33.8116 15.4737 33.8385C15.5838 33.8653 15.7 33.8504 15.7998 33.7966ZM19.8118 24.6645C23.3711 22.742 25.1345 20.6194 26.0058 18.9313L28.8516 25.7076L15.7294 32.7955L11.6212 26.7012C13.5106 26.898 16.2526 26.587 19.8118 24.6645Z"/>
</mask>
<path d="M4.30069 8.11249C5.1195 9.75507 6.06088 11.4461 7.09911 13.1398C7.16025 13.2394 7.25718 13.3117 7.36998 13.342C7.48278 13.3723 7.60291 13.3583 7.7057 13.3028L7.72808 13.2907C7.7793 13.2595 7.82384 13.2184 7.85915 13.1699C7.89446 13.1214 7.91983 13.0664 7.93382 13.0081C7.94781 12.9497 7.95013 12.8892 7.94066 12.83C7.93118 12.7707 7.9101 12.714 7.87861 12.6629C6.85437 10.9915 5.92588 9.32432 5.11883 7.70527C5.02676 7.52181 5.01002 7.30964 5.07218 7.11401C5.13433 6.91838 5.27045 6.75478 5.45152 6.65808L6.09024 6.31308C6.32642 6.75033 6.72988 7.50977 7.23569 8.43369C7.29394 8.53918 7.39148 8.6174 7.50711 8.65134C7.62273 8.68527 7.74708 8.67218 7.8531 8.61491C7.90714 8.58663 7.95496 8.5478 7.99374 8.50071C8.03252 8.45363 8.06146 8.39925 8.07885 8.34079C8.09625 8.28233 8.10175 8.22097 8.09502 8.16035C8.0883 8.09973 8.06949 8.04107 8.0397 7.98784C7.23906 6.53593 6.6895 5.48817 6.68386 5.47773C6.65587 5.42402 6.61747 5.37642 6.5709 5.3377C6.52433 5.29899 6.47051 5.26993 6.41259 5.25223C6.35467 5.23453 6.29381 5.22854 6.23355 5.2346C6.17329 5.24067 6.11484 5.25867 6.06161 5.28756L5.01698 5.85182C4.62589 6.06035 4.33197 6.41367 4.1981 6.83617C4.06423 7.25868 4.10105 7.71679 4.30069 8.11249Z" fill="#C4C4C4"/>
<path d="M3.42647 14.2394C3.47622 14.2051 3.51868 14.1613 3.55136 14.1104C3.58404 14.0596 3.6063 14.0028 3.61684 13.9433C3.62739 13.8838 3.62601 13.8228 3.61279 13.7638C3.59957 13.7049 3.57476 13.6491 3.53982 13.5998C2.88137 12.6485 2.33333 11.757 1.99053 11.1759C1.95231 11.1119 1.92745 11.0408 1.91745 10.9669C1.90745 10.8931 1.91251 10.8179 1.93233 10.7461C1.95214 10.6742 1.98631 10.6071 2.03276 10.5488C2.07922 10.4905 2.137 10.4422 2.20262 10.4069L2.74657 10.113C3.3832 11.2357 4.08533 12.3199 4.84933 13.36C4.91464 13.4487 5.00977 13.5109 5.11724 13.5352C5.22471 13.5595 5.33734 13.5442 5.43445 13.4921C5.45344 13.4819 5.47159 13.4701 5.48874 13.457C5.53714 13.4215 5.57805 13.3768 5.60915 13.3255C5.64025 13.2742 5.66092 13.2172 5.66997 13.1579C5.67902 13.0986 5.67628 13.038 5.6619 12.9798C5.64752 12.9215 5.62179 12.8667 5.58618 12.8183C4.75674 11.6901 4.00256 10.5085 3.32854 9.2811C3.27042 9.17538 3.17285 9.09692 3.05712 9.06283C2.94139 9.02875 2.81688 9.0418 2.71073 9.09914L1.77055 9.60697C1.59669 9.70085 1.44357 9.82885 1.32036 9.98332C1.19715 10.1378 1.1064 10.3155 1.05353 10.5059C1.00066 10.6963 0.986767 10.8954 1.01268 11.0913C1.0386 11.2871 1.10379 11.4758 1.20435 11.6459C1.5559 12.2396 2.11448 13.1524 2.7899 14.1244C2.82405 14.1739 2.86764 14.2161 2.91816 14.2487C2.96868 14.2813 3.02514 14.3035 3.08429 14.3142C3.14344 14.3249 3.20412 14.3238 3.26284 14.3109C3.32157 14.2981 3.37717 14.2738 3.42647 14.2394Z" fill="#C4C4C4"/>
<path d="M11.7738 2.3005C11.7493 2.35589 11.7361 2.41557 11.7348 2.4761C11.7336 2.53663 11.7443 2.59681 11.7664 2.65318C11.7816 2.69364 13.3508 6.69805 14.5119 10.3561C14.53 10.4134 14.5592 10.4666 14.5979 10.5126C14.6366 10.5585 14.684 10.5964 14.7374 10.624C14.7907 10.6517 14.849 10.6685 14.9089 10.6735C14.9688 10.6785 15.0291 10.6716 15.0863 10.6533L15.1093 10.6446C15.2186 10.6031 15.3079 10.5214 15.3588 10.4162C15.4098 10.311 15.4186 10.1903 15.3835 10.0788C14.4391 7.0959 13.223 3.89009 12.7839 2.75052L13.4678 2.49241C13.6592 2.41942 13.8715 2.42424 14.0593 2.50582C14.2471 2.58741 14.3956 2.73929 14.4728 2.92895C15.0863 4.40792 15.6699 5.99057 16.2068 7.63437C16.2236 7.69365 16.2521 7.74893 16.2907 7.79691C16.3293 7.84489 16.3772 7.88457 16.4315 7.91358C16.4859 7.94258 16.5455 7.9603 16.6069 7.96568C16.6682 7.97106 16.73 7.96399 16.7886 7.94489C16.8471 7.92579 16.9012 7.89505 16.9476 7.85453C16.9939 7.814 17.0317 7.76453 17.0584 7.70906C17.0852 7.6536 17.1005 7.5933 17.1034 7.53178C17.1063 7.47026 17.0967 7.4088 17.0753 7.35107C16.5315 5.68445 15.9403 4.07928 15.316 2.57632C15.1478 2.16864 14.8274 1.84252 14.4227 1.6671C14.0181 1.49169 13.5611 1.48077 13.1485 1.63667L12.0298 2.05887C11.9733 2.08035 11.9216 2.11275 11.8777 2.15421C11.8338 2.19567 11.7985 2.24538 11.7738 2.3005Z" fill="#C4C4C4"/>
<path d="M16.2391 2.30604C16.9389 3.6235 17.5454 4.98844 18.0542 6.39079C18.0953 6.50482 18.1801 6.59783 18.2898 6.64937C18.3995 6.70091 18.5252 6.70675 18.6392 6.66562C18.6606 6.65789 18.6813 6.64861 18.7013 6.63785C18.7978 6.58573 18.8722 6.50071 18.9112 6.39827C18.9502 6.29584 18.951 6.18281 18.9137 6.07979C18.442 4.77946 17.8885 3.5103 17.2564 2.27995L17.8182 1.97646C17.8814 1.94213 17.9509 1.92098 18.0225 1.91428C18.0941 1.90759 18.1663 1.91548 18.2348 1.93749C18.3029 1.95903 18.3659 1.99422 18.42 2.04092C18.474 2.08762 18.518 2.14484 18.5492 2.2091C18.8493 2.81813 19.2988 3.77532 19.7367 4.85545C19.7881 4.95828 19.8764 5.03796 19.9839 5.07861C20.0914 5.11926 20.2103 5.11791 20.3169 5.07481C20.4235 5.03171 20.5099 4.95004 20.559 4.84606C20.608 4.74209 20.6161 4.62345 20.5816 4.5138C20.133 3.40669 19.6737 2.43158 19.3675 1.80757C19.2814 1.63301 19.161 1.4776 19.0134 1.35062C18.8659 1.22364 18.6943 1.1277 18.5088 1.06853C18.3234 1.00937 18.1279 0.988185 17.9341 1.00625C17.7403 1.02432 17.5521 1.08127 17.3808 1.1737L16.4257 1.68959C16.3195 1.74693 16.2403 1.84391 16.2054 1.95938C16.1704 2.07485 16.1826 2.19946 16.2391 2.30604Z" fill="#C4C4C4"/>
<path d="M10.7666 12.804C10.8159 12.9111 10.9047 12.9949 11.0144 13.0381C11.1241 13.0813 11.2462 13.0804 11.3553 13.0356C11.4644 12.9909 11.5519 12.9058 11.5997 12.798C11.6475 12.6902 11.6518 12.5682 11.6117 12.4573C10.182 8.9487 9.21594 5.7124 8.8189 3.09852C8.79955 2.96563 8.83351 2.83047 8.91338 2.72252C8.99326 2.61457 9.11257 2.54257 9.24531 2.52221L9.8122 2.4369C10.5907 5.81433 11.653 9.11999 12.9879 12.3186C13.0339 12.4306 13.1225 12.5198 13.2342 12.5665C13.346 12.6132 13.4716 12.6137 13.5837 12.5678C13.6375 12.5458 13.6864 12.5136 13.7279 12.4729C13.7936 12.409 13.8385 12.3268 13.8568 12.2371C13.8751 12.1473 13.866 12.0541 13.8305 11.9695C11.532 6.45322 10.6287 1.88407 10.6222 1.83599C10.5998 1.72028 10.5335 1.61773 10.4372 1.54973C10.3409 1.48174 10.2221 1.45356 10.1055 1.47108L9.11302 1.62173C8.92835 1.64935 8.75094 1.71313 8.59095 1.80942C8.43097 1.90571 8.29155 2.03261 8.18068 2.18286C8.06981 2.33311 7.98967 2.50375 7.94485 2.68502C7.90003 2.86629 7.89141 3.05462 7.91949 3.23922C8.33164 5.96129 9.29081 9.17949 10.7666 12.804Z" fill="#C4C4C4"/>
<path d="M21.0519 6.14149C20.7905 6.09923 20.5227 6.12493 20.2742 6.21612C20.0257 6.30732 19.8048 6.46093 19.6328 6.66218C18.8727 7.5624 18.2687 8.58358 17.8459 9.68336C16.6326 12.7281 14.3389 13.9208 14.3173 13.9325L14.2919 13.9462C14.2688 13.9587 12.033 15.23 8.80499 14.5697C7.64597 14.3185 6.45289 14.2646 5.27595 14.4103C5.01773 14.4451 4.77272 14.5455 4.56425 14.7018C4.35579 14.8581 4.19079 15.0651 4.08499 15.3032C3.97614 15.5433 3.93073 15.8073 3.95312 16.07C3.97551 16.3327 4.06494 16.5852 4.21286 16.8034L5.60625 18.8691C5.67399 18.9696 5.7789 19.0392 5.8979 19.0624C6.01691 19.0856 6.14026 19.0606 6.24082 18.9928C6.34138 18.9251 6.41091 18.8202 6.43412 18.7012C6.45733 18.5822 6.43231 18.4588 6.36457 18.3583L4.96658 16.2912C4.90645 16.2007 4.87071 16.0962 4.86283 15.9878C4.85495 15.8794 4.87519 15.7708 4.9216 15.6726C4.96337 15.5759 5.02961 15.4919 5.11379 15.4287C5.19796 15.3654 5.29716 15.3253 5.4016 15.3121C6.47625 15.1826 7.56501 15.2348 8.62236 15.4664C12.0975 16.1773 14.5252 14.867 14.7399 14.7452C14.9546 14.6234 17.3864 13.3205 18.6971 10.0245C19.0829 9.01767 19.6342 8.08235 20.3282 7.25719C20.398 7.17352 20.4884 7.10942 20.5904 7.07121C20.6924 7.03299 20.8027 7.02196 20.9102 7.0392C21.0162 7.05502 21.1163 7.09815 21.2005 7.16434C21.2848 7.23054 21.3503 7.31752 21.3908 7.41674L24.8817 15.7443C24.9048 15.7997 24.9386 15.85 24.9812 15.8923C25.0238 15.9345 25.0743 15.968 25.1298 15.9908C25.1853 16.0135 25.2448 16.0251 25.3048 16.0248C25.3648 16.0245 25.4242 16.0124 25.4795 15.9892C25.4933 15.9827 25.5068 15.9754 25.5198 15.9674C25.6198 15.9132 25.6959 15.8237 25.7333 15.7163C25.7707 15.6089 25.7666 15.4914 25.7219 15.3869L22.2304 7.06539C22.1295 6.82338 21.9681 6.61134 21.7618 6.44957C21.5554 6.2878 21.311 6.18172 21.0519 6.14149Z" fill="#C4C4C4"/>
<path d="M15.7998 33.7966L29.6494 26.3157C29.7493 26.2616 29.8254 26.1724 29.8631 26.0653C29.9007 25.9582 29.8972 25.8409 29.8531 25.7363L26.4376 17.5983C26.4367 17.5956 26.4353 17.5931 26.4336 17.5908C26.4263 17.5746 26.4178 17.5589 26.4082 17.5438C26.4031 17.5325 26.3971 17.5215 26.3905 17.511C26.3811 17.4982 26.3709 17.486 26.3601 17.4744C26.3515 17.4634 26.3423 17.4529 26.3325 17.443C26.3217 17.4334 26.3104 17.4244 26.2987 17.416C26.2871 17.4062 26.275 17.3969 26.2625 17.3883C26.2513 17.3818 26.2397 17.3765 26.2278 17.3704C26.213 17.3619 26.1977 17.3544 26.1819 17.348C26.1819 17.348 26.1795 17.3435 26.1735 17.3448C26.1639 17.3418 26.1542 17.3393 26.1444 17.3374C26.1284 17.3317 26.1119 17.3273 26.0951 17.3245C26.0812 17.3221 26.0672 17.3207 26.0532 17.3202C26.0372 17.3192 26.022 17.3177 26.0057 17.3179C25.991 17.3184 25.9763 17.3199 25.9618 17.3223C25.9474 17.3243 25.9327 17.3255 25.918 17.3286C25.9018 17.3328 25.8859 17.3379 25.8703 17.3438C25.8613 17.3486 25.8507 17.3486 25.8406 17.3531L25.8331 17.3571C25.8169 17.3644 25.8012 17.3729 25.7861 17.3825L25.754 17.3998C25.7391 17.4079 25.7267 17.4223 25.7137 17.4341C25.7044 17.4415 25.6955 17.4495 25.6872 17.4581C25.6759 17.4706 25.6653 17.4837 25.6554 17.4974C25.6474 17.5075 25.639 17.5169 25.6321 17.5274C25.6252 17.5378 25.6185 17.554 25.6121 17.5671C25.6044 17.5804 25.5977 17.5943 25.5921 17.6087L25.5879 17.6168C24.9927 19.2559 23.434 21.6718 19.3801 23.8616C15.4604 25.9788 12.6439 26.0321 10.9287 25.6708L7.55629 20.159C7.52385 20.1067 7.48119 20.0616 7.43089 20.0262C7.38059 19.9909 7.32368 19.966 7.26355 19.9532C7.20342 19.9403 7.14132 19.9398 7.08096 19.9515C7.0206 19.9632 6.96323 19.9869 6.91227 20.0214C6.86131 20.0558 6.81781 20.1001 6.78439 20.1517C6.75096 20.2033 6.72828 20.2611 6.71772 20.3217C6.70716 20.3822 6.70892 20.4443 6.72291 20.5042C6.7369 20.5641 6.76282 20.6205 6.79912 20.6701L15.2036 33.6511C15.2674 33.7448 15.3636 33.8116 15.4737 33.8385C15.5838 33.8653 15.7 33.8504 15.7998 33.7966ZM19.8118 24.6645C23.3711 22.742 25.1345 20.6194 26.0058 18.9313L28.8516 25.7076L15.7294 32.7955L11.6212 26.7012C13.5106 26.898 16.2526 26.587 19.8118 24.6645Z" fill="#C4C4C4"/>
<path d="M4.30069 8.11249C5.1195 9.75507 6.06088 11.4461 7.09911 13.1398C7.16025 13.2394 7.25718 13.3117 7.36998 13.342C7.48278 13.3723 7.60291 13.3583 7.7057 13.3028L7.72808 13.2907C7.7793 13.2595 7.82384 13.2184 7.85915 13.1699C7.89446 13.1214 7.91983 13.0664 7.93382 13.0081C7.94781 12.9497 7.95013 12.8892 7.94066 12.83C7.93118 12.7707 7.9101 12.714 7.87861 12.6629C6.85437 10.9915 5.92588 9.32432 5.11883 7.70527C5.02676 7.52181 5.01002 7.30964 5.07218 7.11401C5.13433 6.91838 5.27045 6.75478 5.45152 6.65808L6.09024 6.31308C6.32642 6.75033 6.72988 7.50977 7.23569 8.43369C7.29394 8.53918 7.39148 8.6174 7.50711 8.65134C7.62273 8.68527 7.74708 8.67218 7.8531 8.61491C7.90714 8.58663 7.95496 8.5478 7.99374 8.50071C8.03252 8.45363 8.06146 8.39925 8.07885 8.34079C8.09625 8.28233 8.10175 8.22097 8.09502 8.16035C8.0883 8.09973 8.06949 8.04107 8.0397 7.98784C7.23906 6.53593 6.6895 5.48817 6.68386 5.47773C6.65587 5.42402 6.61747 5.37642 6.5709 5.3377C6.52433 5.29899 6.47051 5.26993 6.41259 5.25223C6.35467 5.23453 6.29381 5.22854 6.23355 5.2346C6.17329 5.24067 6.11484 5.25867 6.06161 5.28756L5.01698 5.85182C4.62589 6.06035 4.33197 6.41367 4.1981 6.83617C4.06423 7.25868 4.10105 7.71679 4.30069 8.11249Z" stroke="#C4C4C4" stroke-width="0.657801" mask="url(#path-1-outside-1_1181:1353)"/>
<path d="M3.42647 14.2394C3.47622 14.2051 3.51868 14.1613 3.55136 14.1104C3.58404 14.0596 3.6063 14.0028 3.61684 13.9433C3.62739 13.8838 3.62601 13.8228 3.61279 13.7638C3.59957 13.7049 3.57476 13.6491 3.53982 13.5998C2.88137 12.6485 2.33333 11.757 1.99053 11.1759C1.95231 11.1119 1.92745 11.0408 1.91745 10.9669C1.90745 10.8931 1.91251 10.8179 1.93233 10.7461C1.95214 10.6742 1.98631 10.6071 2.03276 10.5488C2.07922 10.4905 2.137 10.4422 2.20262 10.4069L2.74657 10.113C3.3832 11.2357 4.08533 12.3199 4.84933 13.36C4.91464 13.4487 5.00977 13.5109 5.11724 13.5352C5.22471 13.5595 5.33734 13.5442 5.43445 13.4921C5.45344 13.4819 5.47159 13.4701 5.48874 13.457C5.53714 13.4215 5.57805 13.3768 5.60915 13.3255C5.64025 13.2742 5.66092 13.2172 5.66997 13.1579C5.67902 13.0986 5.67628 13.038 5.6619 12.9798C5.64752 12.9215 5.62179 12.8667 5.58618 12.8183C4.75674 11.6901 4.00256 10.5085 3.32854 9.2811C3.27042 9.17538 3.17285 9.09692 3.05712 9.06283C2.94139 9.02875 2.81688 9.0418 2.71073 9.09914L1.77055 9.60697C1.59669 9.70085 1.44357 9.82885 1.32036 9.98332C1.19715 10.1378 1.1064 10.3155 1.05353 10.5059C1.00066 10.6963 0.986767 10.8954 1.01268 11.0913C1.0386 11.2871 1.10379 11.4758 1.20435 11.6459C1.5559 12.2396 2.11448 13.1524 2.7899 14.1244C2.82405 14.1739 2.86764 14.2161 2.91816 14.2487C2.96868 14.2813 3.02514 14.3035 3.08429 14.3142C3.14344 14.3249 3.20412 14.3238 3.26284 14.3109C3.32157 14.2981 3.37717 14.2738 3.42647 14.2394Z" stroke="#C4C4C4" stroke-width="0.657801" mask="url(#path-1-outside-1_1181:1353)"/>
<path d="M11.7738 2.3005C11.7493 2.35589 11.7361 2.41557 11.7348 2.4761C11.7336 2.53663 11.7443 2.59681 11.7664 2.65318C11.7816 2.69364 13.3508 6.69805 14.5119 10.3561C14.53 10.4134 14.5592 10.4666 14.5979 10.5126C14.6366 10.5585 14.684 10.5964 14.7374 10.624C14.7907 10.6517 14.849 10.6685 14.9089 10.6735C14.9688 10.6785 15.0291 10.6716 15.0863 10.6533L15.1093 10.6446C15.2186 10.6031 15.3079 10.5214 15.3588 10.4162C15.4098 10.311 15.4186 10.1903 15.3835 10.0788C14.4391 7.0959 13.223 3.89009 12.7839 2.75052L13.4678 2.49241C13.6592 2.41942 13.8715 2.42424 14.0593 2.50582C14.2471 2.58741 14.3956 2.73929 14.4728 2.92895C15.0863 4.40792 15.6699 5.99057 16.2068 7.63437C16.2236 7.69365 16.2521 7.74893 16.2907 7.79691C16.3293 7.84489 16.3772 7.88457 16.4315 7.91358C16.4859 7.94258 16.5455 7.9603 16.6069 7.96568C16.6682 7.97106 16.73 7.96399 16.7886 7.94489C16.8471 7.92579 16.9012 7.89505 16.9476 7.85453C16.9939 7.814 17.0317 7.76453 17.0584 7.70906C17.0852 7.6536 17.1005 7.5933 17.1034 7.53178C17.1063 7.47026 17.0967 7.4088 17.0753 7.35107C16.5315 5.68445 15.9403 4.07928 15.316 2.57632C15.1478 2.16864 14.8274 1.84252 14.4227 1.6671C14.0181 1.49169 13.5611 1.48077 13.1485 1.63667L12.0298 2.05887C11.9733 2.08035 11.9216 2.11275 11.8777 2.15421C11.8338 2.19567 11.7985 2.24538 11.7738 2.3005Z" stroke="#C4C4C4" stroke-width="0.657801" mask="url(#path-1-outside-1_1181:1353)"/>
<path d="M16.2391 2.30604C16.9389 3.6235 17.5454 4.98844 18.0542 6.39079C18.0953 6.50482 18.1801 6.59783 18.2898 6.64937C18.3995 6.70091 18.5252 6.70675 18.6392 6.66562C18.6606 6.65789 18.6813 6.64861 18.7013 6.63785C18.7978 6.58573 18.8722 6.50071 18.9112 6.39827C18.9502 6.29584 18.951 6.18281 18.9137 6.07979C18.442 4.77946 17.8885 3.5103 17.2564 2.27995L17.8182 1.97646C17.8814 1.94213 17.9509 1.92098 18.0225 1.91428C18.0941 1.90759 18.1663 1.91548 18.2348 1.93749C18.3029 1.95903 18.3659 1.99422 18.42 2.04092C18.474 2.08762 18.518 2.14484 18.5492 2.2091C18.8493 2.81813 19.2988 3.77532 19.7367 4.85545C19.7881 4.95828 19.8764 5.03796 19.9839 5.07861C20.0914 5.11926 20.2103 5.11791 20.3169 5.07481C20.4235 5.03171 20.5099 4.95004 20.559 4.84606C20.608 4.74209 20.6161 4.62345 20.5816 4.5138C20.133 3.40669 19.6737 2.43158 19.3675 1.80757C19.2814 1.63301 19.161 1.4776 19.0134 1.35062C18.8659 1.22364 18.6943 1.1277 18.5088 1.06853C18.3234 1.00937 18.1279 0.988185 17.9341 1.00625C17.7403 1.02432 17.5521 1.08127 17.3808 1.1737L16.4257 1.68959C16.3195 1.74693 16.2403 1.84391 16.2054 1.95938C16.1704 2.07485 16.1826 2.19946 16.2391 2.30604Z" stroke="#C4C4C4" stroke-width="0.657801" mask="url(#path-1-outside-1_1181:1353)"/>
<path d="M10.7666 12.804C10.8159 12.9111 10.9047 12.9949 11.0144 13.0381C11.1241 13.0813 11.2462 13.0804 11.3553 13.0356C11.4644 12.9909 11.5519 12.9058 11.5997 12.798C11.6475 12.6902 11.6518 12.5682 11.6117 12.4573C10.182 8.9487 9.21594 5.7124 8.8189 3.09852C8.79955 2.96563 8.83351 2.83047 8.91338 2.72252C8.99326 2.61457 9.11257 2.54257 9.24531 2.52221L9.8122 2.4369C10.5907 5.81433 11.653 9.11999 12.9879 12.3186C13.0339 12.4306 13.1225 12.5198 13.2342 12.5665C13.346 12.6132 13.4716 12.6137 13.5837 12.5678C13.6375 12.5458 13.6864 12.5136 13.7279 12.4729C13.7936 12.409 13.8385 12.3268 13.8568 12.2371C13.8751 12.1473 13.866 12.0541 13.8305 11.9695C11.532 6.45322 10.6287 1.88407 10.6222 1.83599C10.5998 1.72028 10.5335 1.61773 10.4372 1.54973C10.3409 1.48174 10.2221 1.45356 10.1055 1.47108L9.11302 1.62173C8.92835 1.64935 8.75094 1.71313 8.59095 1.80942C8.43097 1.90571 8.29155 2.03261 8.18068 2.18286C8.06981 2.33311 7.98967 2.50375 7.94485 2.68502C7.90003 2.86629 7.89141 3.05462 7.91949 3.23922C8.33164 5.96129 9.29081 9.17949 10.7666 12.804Z" stroke="#C4C4C4" stroke-width="0.657801" mask="url(#path-1-outside-1_1181:1353)"/>
<path d="M21.0519 6.14149C20.7905 6.09923 20.5227 6.12493 20.2742 6.21612C20.0257 6.30732 19.8048 6.46093 19.6328 6.66218C18.8727 7.5624 18.2687 8.58358 17.8459 9.68336C16.6326 12.7281 14.3389 13.9208 14.3173 13.9325L14.2919 13.9462C14.2688 13.9587 12.033 15.23 8.80499 14.5697C7.64597 14.3185 6.45289 14.2646 5.27595 14.4103C5.01773 14.4451 4.77272 14.5455 4.56425 14.7018C4.35579 14.8581 4.19079 15.0651 4.08499 15.3032C3.97614 15.5433 3.93073 15.8073 3.95312 16.07C3.97551 16.3327 4.06494 16.5852 4.21286 16.8034L5.60625 18.8691C5.67399 18.9696 5.7789 19.0392 5.8979 19.0624C6.01691 19.0856 6.14026 19.0606 6.24082 18.9928C6.34138 18.9251 6.41091 18.8202 6.43412 18.7012C6.45733 18.5822 6.43231 18.4588 6.36457 18.3583L4.96658 16.2912C4.90645 16.2007 4.87071 16.0962 4.86283 15.9878C4.85495 15.8794 4.87519 15.7708 4.9216 15.6726C4.96337 15.5759 5.02961 15.4919 5.11379 15.4287C5.19796 15.3654 5.29716 15.3253 5.4016 15.3121C6.47625 15.1826 7.56501 15.2348 8.62236 15.4664C12.0975 16.1773 14.5252 14.867 14.7399 14.7452C14.9546 14.6234 17.3864 13.3205 18.6971 10.0245C19.0829 9.01767 19.6342 8.08235 20.3282 7.25719C20.398 7.17352 20.4884 7.10942 20.5904 7.07121C20.6924 7.03299 20.8027 7.02196 20.9102 7.0392C21.0162 7.05502 21.1163 7.09815 21.2005 7.16434C21.2848 7.23054 21.3503 7.31752 21.3908 7.41674L24.8817 15.7443C24.9048 15.7997 24.9386 15.85 24.9812 15.8923C25.0238 15.9345 25.0743 15.968 25.1298 15.9908C25.1853 16.0135 25.2448 16.0251 25.3048 16.0248C25.3648 16.0245 25.4242 16.0124 25.4795 15.9892C25.4933 15.9827 25.5068 15.9754 25.5198 15.9674C25.6198 15.9132 25.6959 15.8237 25.7333 15.7163C25.7707 15.6089 25.7666 15.4914 25.7219 15.3869L22.2304 7.06539C22.1295 6.82338 21.9681 6.61134 21.7618 6.44957C21.5554 6.2878 21.311 6.18172 21.0519 6.14149Z" stroke="#C4C4C4" stroke-width="0.657801" mask="url(#path-1-outside-1_1181:1353)"/>
<path d="M15.7998 33.7966L29.6494 26.3157C29.7493 26.2616 29.8254 26.1724 29.8631 26.0653C29.9007 25.9582 29.8972 25.8409 29.8531 25.7363L26.4376 17.5983C26.4367 17.5956 26.4353 17.5931 26.4336 17.5908C26.4263 17.5746 26.4178 17.5589 26.4082 17.5438C26.4031 17.5325 26.3971 17.5215 26.3905 17.511C26.3811 17.4982 26.3709 17.486 26.3601 17.4744C26.3515 17.4634 26.3423 17.4529 26.3325 17.443C26.3217 17.4334 26.3104 17.4244 26.2987 17.416C26.2871 17.4062 26.275 17.3969 26.2625 17.3883C26.2513 17.3818 26.2397 17.3765 26.2278 17.3704C26.213 17.3619 26.1977 17.3544 26.1819 17.348C26.1819 17.348 26.1795 17.3435 26.1735 17.3448C26.1639 17.3418 26.1542 17.3393 26.1444 17.3374C26.1284 17.3317 26.1119 17.3273 26.0951 17.3245C26.0812 17.3221 26.0672 17.3207 26.0532 17.3202C26.0372 17.3192 26.022 17.3177 26.0057 17.3179C25.991 17.3184 25.9763 17.3199 25.9618 17.3223C25.9474 17.3243 25.9327 17.3255 25.918 17.3286C25.9018 17.3328 25.8859 17.3379 25.8703 17.3438C25.8613 17.3486 25.8507 17.3486 25.8406 17.3531L25.8331 17.3571C25.8169 17.3644 25.8012 17.3729 25.7861 17.3825L25.754 17.3998C25.7391 17.4079 25.7267 17.4223 25.7137 17.4341C25.7044 17.4415 25.6955 17.4495 25.6872 17.4581C25.6759 17.4706 25.6653 17.4837 25.6554 17.4974C25.6474 17.5075 25.639 17.5169 25.6321 17.5274C25.6252 17.5378 25.6185 17.554 25.6121 17.5671C25.6044 17.5804 25.5977 17.5943 25.5921 17.6087L25.5879 17.6168C24.9927 19.2559 23.434 21.6718 19.3801 23.8616C15.4604 25.9788 12.6439 26.0321 10.9287 25.6708L7.55629 20.159C7.52385 20.1067 7.48119 20.0616 7.43089 20.0262C7.38059 19.9909 7.32368 19.966 7.26355 19.9532C7.20342 19.9403 7.14132 19.9398 7.08096 19.9515C7.0206 19.9632 6.96323 19.9869 6.91227 20.0214C6.86131 20.0558 6.81781 20.1001 6.78439 20.1517C6.75096 20.2033 6.72828 20.2611 6.71772 20.3217C6.70716 20.3822 6.70892 20.4443 6.72291 20.5042C6.7369 20.5641 6.76282 20.6205 6.79912 20.6701L15.2036 33.6511C15.2674 33.7448 15.3636 33.8116 15.4737 33.8385C15.5838 33.8653 15.7 33.8504 15.7998 33.7966ZM19.8118 24.6645C23.3711 22.742 25.1345 20.6194 26.0058 18.9313L28.8516 25.7076L15.7294 32.7955L11.6212 26.7012C13.5106 26.898 16.2526 26.587 19.8118 24.6645Z" stroke="#C4C4C4" stroke-width="0.657801" mask="url(#path-1-outside-1_1181:1353)"/>
</svg>
