<svg width="120" height="21" viewBox="0 0 120 21" fill="none" xmlns="http://www.w3.org/2000/svg">
<path d="M12.8021 1.2359C13.1946 1.2359 13.4847 1.25297 13.6725 1.2871C13.8772 1.30417 14.0991 1.38096 14.338 1.51749C14.594 1.65402 14.7732 1.88441 14.8756 2.20867C14.978 2.53292 15.0292 2.9681 15.0292 3.51422C15.0292 4.06033 14.978 4.49551 14.8756 4.81977C14.7732 5.14402 14.594 5.37442 14.338 5.51094C14.082 5.63041 13.8516 5.7072 13.6469 5.74133C13.4591 5.7584 13.1605 5.76693 12.7509 5.76693H4.91758V8.35244H9.96059C10.3702 8.35244 10.6688 8.3695 10.8566 8.40364C11.0613 8.4207 11.2917 8.4975 11.5477 8.63403C11.9914 8.89002 12.2133 9.56412 12.2133 10.6564C12.2133 11.851 11.8891 12.5592 11.2405 12.7811C10.9675 12.8664 10.5323 12.9091 9.93499 12.9091H4.91758V17.7473C4.91758 18.1569 4.90051 18.4555 4.86638 18.6433C4.84931 18.831 4.77252 19.0528 4.63599 19.3088C4.39706 19.7696 3.73149 20 2.63926 20C1.44464 20 0.744935 19.6757 0.540143 19.0272C0.437747 18.7542 0.386549 18.319 0.386549 17.7217V3.48862C0.386549 2.61825 0.548676 2.02947 0.87293 1.72228C1.19718 1.39803 1.81156 1.2359 2.71606 1.2359H12.8021ZM14.002 13.2675C14.002 11.2195 14.7188 9.52999 16.1524 8.19884C17.5859 6.86769 19.2242 6.20212 21.0674 6.20212C22.9105 6.20212 24.5403 6.86769 25.9568 8.19884C27.3733 9.51293 28.0815 11.1939 28.0815 13.2419C28.0815 14.6583 27.7146 15.9212 26.9808 17.0305C26.2469 18.1227 25.3509 18.9334 24.2929 19.4624C23.2518 19.9744 22.1681 20.2304 21.0418 20.2304C19.9154 20.2304 18.8232 19.9573 17.7651 19.4112C16.707 18.848 15.811 18.0289 15.0772 16.9537C14.3604 15.8615 14.002 14.6327 14.002 13.2675ZM19.3522 15.1106C19.8983 15.5202 20.453 15.725 21.0162 15.725C21.5794 15.725 22.1425 15.5116 22.7057 15.085C23.2689 14.6583 23.5505 14.0269 23.5505 13.1907C23.5505 12.3544 23.286 11.7315 22.7569 11.3219C22.2279 10.9123 21.6562 10.7075 21.0418 10.7075C20.4274 10.7075 19.8557 10.9209 19.3266 11.3475C18.7976 11.7742 18.5331 12.4056 18.5331 13.2419C18.5331 14.061 18.8061 14.6839 19.3522 15.1106ZM29.3515 13.2675C29.3515 11.2195 30.0682 9.52999 31.5018 8.19884C32.9353 6.86769 34.5737 6.20212 36.4168 6.20212C38.2599 6.20212 39.8897 6.86769 41.3062 8.19884C42.7227 9.51293 43.4309 11.1939 43.4309 13.2419C43.4309 14.6583 43.064 15.9212 42.3302 17.0305C41.5963 18.1227 40.7004 18.9334 39.6423 19.4624C38.6012 19.9744 37.5176 20.2304 36.3912 20.2304C35.2648 20.2304 34.1726 19.9573 33.1145 19.4112C32.0564 18.848 31.1605 18.0289 30.4266 16.9537C29.7098 15.8615 29.3515 14.6327 29.3515 13.2675ZM34.7017 15.1106C35.2478 15.5202 35.8024 15.725 36.3656 15.725C36.9288 15.725 37.492 15.5116 38.0551 15.085C38.6183 14.6583 38.8999 14.0269 38.8999 13.1907C38.8999 12.3544 38.6354 11.7315 38.1063 11.3219C37.5773 10.9123 37.0056 10.7075 36.3912 10.7075C35.7768 10.7075 35.2051 10.9209 34.6761 11.3475C34.147 11.7742 33.8825 12.4056 33.8825 13.2419C33.8825 14.061 34.1555 14.6839 34.7017 15.1106ZM54.1213 0.903116C54.2579 0.647125 54.4883 0.467932 54.8125 0.365537C55.1368 0.26314 55.5634 0.211941 56.0925 0.211941C56.6386 0.211941 57.0738 0.26314 57.398 0.365537C57.7223 0.467932 57.9441 0.647125 58.0636 0.903116C58.2001 1.15911 58.2769 1.3895 58.294 1.59429C58.3281 1.78202 58.3452 2.07214 58.3452 2.46466V17.7473C58.3452 18.1398 58.3281 18.4385 58.294 18.6433C58.2769 18.831 58.2001 19.0443 58.0636 19.2832C57.8076 19.744 57.0823 19.9744 55.8877 19.9744C54.7101 19.9744 54.0531 19.5563 53.9165 18.72C53.1998 19.5392 52.2014 19.9488 50.9215 19.9488C49.3855 19.9488 47.9861 19.2832 46.7232 17.9521C45.4603 16.6039 44.8289 15.0423 44.8289 13.2675C44.8289 11.4755 45.4603 9.90544 46.7232 8.55723C48.0032 7.20901 49.4026 6.5349 50.9215 6.5349C52.1843 6.5349 53.1656 6.96156 53.8653 7.81486V2.43906C53.8653 2.04654 53.8739 1.75642 53.8909 1.56869C53.9251 1.3639 54.0019 1.14204 54.1213 0.903116ZM49.9743 14.8034C50.418 15.2642 50.9556 15.4946 51.587 15.4946C52.2185 15.4946 52.739 15.2642 53.1486 14.8034C53.5752 14.3426 53.7885 13.8392 53.7885 13.2931C53.7885 12.7299 53.5838 12.2094 53.1742 11.7315C52.7816 11.2537 52.2441 11.0147 51.5614 11.0147C50.8788 11.0147 50.3327 11.2537 49.9231 11.7315C49.5135 12.1923 49.3087 12.7043 49.3087 13.2675C49.3087 13.8306 49.5306 14.3426 49.9743 14.8034ZM69.1392 7.94285C69.2416 6.98715 69.9157 6.50931 71.1615 6.50931C71.8271 6.50931 72.322 6.5605 72.6462 6.6629C72.9705 6.7653 73.1924 6.94449 73.3118 7.20048C73.4483 7.45647 73.5251 7.68686 73.5422 7.89165C73.5763 8.07938 73.5934 8.3695 73.5934 8.76202V17.7217C73.5934 18.1142 73.5763 18.4129 73.5422 18.6177C73.5251 18.8054 73.4569 19.0272 73.3374 19.2832C73.0985 19.7269 72.5097 19.9488 71.5711 19.9488C70.6495 19.9488 70.0266 19.8379 69.7023 19.616C69.3952 19.3771 69.216 19.0358 69.1648 18.5921C68.5333 19.4966 67.4752 19.9488 65.9905 19.9488C64.5228 19.9488 63.1575 19.2747 61.8946 17.9265C60.6318 16.5783 60.0003 15.0167 60.0003 13.2419C60.0003 11.4499 60.6318 9.88838 61.8946 8.55723C63.1746 7.20901 64.574 6.5349 66.0929 6.5349C66.6731 6.5349 67.2022 6.6373 67.68 6.84209C68.1579 7.04689 68.4907 7.24314 68.6784 7.43087C68.8661 7.60153 69.0197 7.77219 69.1392 7.94285ZM64.4801 13.2675C64.4801 13.8306 64.702 14.3426 65.1457 14.8034C65.5894 15.2471 66.127 15.469 66.7585 15.469C67.3899 15.469 67.9104 15.2386 68.32 14.7778C68.7467 14.317 68.96 13.8136 68.96 13.2675C68.96 12.7043 68.7552 12.1838 68.3456 11.7059C67.9531 11.2281 67.4155 10.9891 66.7329 10.9891C66.0673 10.9891 65.5212 11.2281 65.0945 11.7059C64.6849 12.1838 64.4801 12.7043 64.4801 13.2675ZM83.1342 6.50931C84.8408 6.50931 86.2573 7.16635 87.3837 8.48043C88.5271 9.77745 89.0988 11.3646 89.0988 13.2419V17.7473C89.0988 18.1398 89.0818 18.4385 89.0476 18.6433C89.0306 18.831 88.9623 19.0443 88.8428 19.2832C88.6039 19.744 87.9383 19.9744 86.8461 19.9744C85.6344 19.9744 84.9347 19.6587 84.747 19.0272C84.6446 18.7371 84.5934 18.3019 84.5934 17.7217V13.2163C84.5934 12.5165 84.3886 11.9704 83.979 11.5779C83.5865 11.1854 83.0489 10.9891 82.3663 10.9891C81.7007 10.9891 81.1546 11.1939 80.7279 11.6035C80.3183 12.0131 80.1136 12.5507 80.1136 13.2163V17.7473C80.1136 18.1398 80.0965 18.4385 80.0624 18.6433C80.0453 18.831 79.9685 19.0443 79.832 19.2832C79.6101 19.744 78.9531 19.9744 77.8608 19.9744C76.7857 19.9744 76.1286 19.744 75.8897 19.2832C75.7703 19.0272 75.6935 18.8054 75.6593 18.6177C75.6423 18.4129 75.6337 18.1142 75.6337 17.7217V8.65963C75.6337 8.28417 75.6423 8.00258 75.6593 7.81486C75.6935 7.61006 75.7788 7.38821 75.9153 7.14928C76.1542 6.72263 76.8113 6.50931 77.8864 6.50931C78.9275 6.50931 79.5674 6.70557 79.8064 7.09808C79.977 7.38821 80.0624 7.73806 80.0624 8.14764C80.1306 8.02818 80.2842 7.85752 80.5231 7.63566C80.7621 7.41381 80.9925 7.23461 81.2143 7.09808C81.7946 6.70557 82.4345 6.50931 83.1342 6.50931ZM104.162 11.6547C104.162 12.6957 103.898 13.4722 103.369 13.9842C102.857 14.4791 102.285 14.7266 101.654 14.7266H95.5868C95.5868 15.2044 95.8684 15.6055 96.4315 15.9298C96.9947 16.254 97.5579 16.4161 98.1211 16.4161C99.1109 16.4161 99.8874 16.3137 100.451 16.1089L100.732 16.0065C101.142 15.8188 101.483 15.725 101.756 15.725C102.302 15.725 102.772 16.1089 103.164 16.8769C103.386 17.3377 103.497 17.7302 103.497 18.0545C103.497 19.5733 101.679 20.3328 98.0443 20.3328C96.7814 20.3328 95.655 20.1195 94.6652 19.6928C93.6924 19.2491 92.933 18.6688 92.3869 17.9521C91.3117 16.5697 90.7742 15.0253 90.7742 13.3187C90.7742 11.1683 91.4653 9.4532 92.8477 8.17324C94.2471 6.87623 95.9878 6.22772 98.0699 6.22772C100.442 6.22772 102.183 7.06395 103.292 8.73642C103.872 9.62386 104.162 10.5966 104.162 11.6547ZM98.7611 12.3971C99.4096 12.3971 99.7338 12.124 99.7338 11.5779C99.7338 11.1854 99.5802 10.8697 99.273 10.6308C98.9829 10.3918 98.5563 10.2724 97.9931 10.2724C97.447 10.2724 96.9009 10.5028 96.3547 10.9635C95.8086 11.4073 95.5356 11.8851 95.5356 12.3971H98.7611ZM105.449 13.2675C105.449 11.2195 106.165 9.52999 107.599 8.19884C109.032 6.86769 110.671 6.20212 112.514 6.20212C114.357 6.20212 115.987 6.86769 117.403 8.19884C118.82 9.51293 119.528 11.1939 119.528 13.2419C119.528 14.6583 119.161 15.9212 118.427 17.0305C117.693 18.1227 116.798 18.9334 115.739 19.4624C114.698 19.9744 113.615 20.2304 112.488 20.2304C111.362 20.2304 110.27 19.9573 109.212 19.4112C108.154 18.848 107.258 18.0289 106.524 16.9537C105.807 15.8615 105.449 14.6327 105.449 13.2675ZM110.799 15.1106C111.345 15.5202 111.9 15.725 112.463 15.725C113.026 15.725 113.589 15.5116 114.152 15.085C114.715 14.6583 114.997 14.0269 114.997 13.1907C114.997 12.3544 114.733 11.7315 114.203 11.3219C113.674 10.9123 113.103 10.7075 112.488 10.7075C111.874 10.7075 111.302 10.9209 110.773 11.3475C110.244 11.7742 109.98 12.4056 109.98 13.2419C109.98 14.061 110.253 14.6839 110.799 15.1106Z" fill="#34B680"/>
</svg>
